<?xml version="1.0" encoding="utf-8"?>
<!-- Generator: Adobe Illustrator 26.2.1, SVG Export Plug-In . SVG Version: 6.00 Build 0)  -->
<svg version="1.1" id="Layer_1" xmlns="http://www.w3.org/2000/svg" xmlns:xlink="http://www.w3.org/1999/xlink" x="0px" y="0px"
	 viewBox="0 0 327.9 104.6" style="enable-background:new 0 0 327.9 104.6;" xml:space="preserve">
<style type="text/css">
	.st0{fill:#DD0079;}
	.st1{enable-background:new    ;}
	.st2{fill:url(#SVGID_00000052813142968409008460000002771778572004704392_);}
	
		.st3{clip-path:url(#SVGID_00000168076411930908116840000002483684647681270434_);fill:url(#SVGID_00000025417230576098085430000017532075605727046295_);}
	.st4{fill:url(#SVGID_00000016763699521699579400000012242667386346221716_);}
	
		.st5{clip-path:url(#SVGID_00000168084181472648043660000011036810479121109678_);fill:url(#SVGID_00000121255546056007973550000002190926417026088090_);}
	.st6{fill:url(#SVGID_00000017486688734970744090000004895825889212734638_);}
	
		.st7{clip-path:url(#SVGID_00000126325104957291772100000010378951748328983231_);fill:url(#SVGID_00000075867607677670420110000003571144210351550096_);}
	.st8{fill:#A3005A;}
	.st9{fill:url(#SVGID_00000089557584560929617250000002417102019455526536_);}
	.st10{fill:url(#SVGID_00000085962538467901833800000005410891002934591906_);}
	.st11{fill:url(#SVGID_00000010309182416424794800000012745665008503451780_);}
	.st12{fill:url(#SVGID_00000106121608043630595800000005945817076922461315_);}
	.st13{fill:url(#SVGID_00000027595026659267826490000012676137346578032051_);}
	
		.st14{clip-path:url(#SVGID_00000005972397017131502170000017020670110636154802_);fill:url(#SVGID_00000168109698414903273490000015123445151924827060_);}
	.st15{fill:url(#SVGID_00000042012407374674406560000010188203240837370546_);}
	
		.st16{clip-path:url(#SVGID_00000124872091173431915110000012800182297246162855_);fill:url(#SVGID_00000115510359332741838470000012787819717005760442_);}
	.st17{fill:url(#SVGID_00000142897788853323063900000003719268375023989902_);}
	.st18{fill:#8D004D;}
	.st19{fill:#006E99;}
	.st20{fill:url(#SVGID_00000080924287574802442590000013783961898446155663_);}
	.st21{fill:url(#SVGID_00000129906117218200596560000012340801287331835815_);}
	.st22{fill:#808080;}
	.st23{fill:url(#SVGID_00000080901544104828496280000003217912661385669520_);}
	.st24{fill:#0073A1;}
	.st25{fill:url(#SVGID_00000007428944912125583430000002570952406534222244_);}
	
		.st26{clip-path:url(#SVGID_00000135689348139943991260000014010057447343431848_);fill:url(#SVGID_00000021081736038497599410000009920995488727817638_);}
	.st27{fill:url(#SVGID_00000031185961379426183350000006725463494153828024_);}
	
		.st28{clip-path:url(#SVGID_00000089573033024999871690000015612015807953108873_);fill:url(#SVGID_00000086664601333237421190000007220413964241112254_);}
	.st29{fill:url(#SVGID_00000027601768050415937410000008456052621949568918_);}
	.st30{fill:url(#SVGID_00000170243858054782227090000012004089341063700385_);}
	.st31{fill:url(#SVGID_00000131327402549029930070000003239412771088362921_);}
	.st32{fill:url(#SVGID_00000112632712232340124110000010161376193300303489_);}
	.st33{fill:url(#SVGID_00000154392570972183905250000003189377288962394539_);}
	.st34{fill:url(#SVGID_00000013892697327425325900000016718374091870328465_);}
	.st35{fill:none;}
	.st36{fill:url(#SVGID_00000000934211409453141430000002754408363900320432_);}
	.st37{fill:url(#SVGID_00000080184446459663915640000014193731527297327760_);}
	.st38{fill:url(#SVGID_00000041975926056315937120000002203797402882580097_);}
	.st39{fill:url(#SVGID_00000113336899861849474480000014346394308332140217_);}
	.st40{fill:url(#SVGID_00000081619420756031772800000012410486067499816841_);}
	.st41{fill:#FFFFFF;}
</style>
<g>
	<g>
		<path class="st0" d="M184.8,6c15.2,1.1,30.4,2.2,45.6,3.3c0.5,1.9,0.8,2.8,1.4,4.6c-11.5-0.6-17.2-0.9-28.6-1.5
			c-2.2-1-4.6-1.9-7.1-2.7C191.6,8.2,189.3,7.5,184.8,6z"/>
		<g class="st1">
			<g>
				
					<linearGradient id="SVGID_00000139276729526472325190000012727592583148403608_" gradientUnits="userSpaceOnUse" x1="197.3305" y1="120.032" x2="215.3513" y2="115.8715" gradientTransform="matrix(0.9127 0.4085 0.4085 -0.9127 -143.9941 55.5743)">
					<stop  offset="0" style="stop-color:#00668E"/>
					<stop  offset="0.1986" style="stop-color:#2087B0"/>
					<stop  offset="0.4129" style="stop-color:#3CA5CF"/>
					<stop  offset="0.5961" style="stop-color:#4DB7E1"/>
					<stop  offset="0.7253" style="stop-color:#53BDE8"/>
				</linearGradient>
				<path id="SVGID_1_" style="fill:url(#SVGID_00000139276729526472325190000012727592583148403608_);" d="M83.5,28.8l14.4-19
					c-3,4-4.1,9.3-2.2,16.1c1.1,3.8,3.1,7.1,5.8,9.8l-14.4,19c-2.6-2.7-4.6-5.9-5.8-9.8C79.4,38.1,80.5,32.8,83.5,28.8z"/>
			</g>
			<g>
				<defs>
					<path id="SVGID_00000063613877439835749900000009611541559046673050_" d="M83.5,28.8l14.4-19c-3,4-4.1,9.3-2.2,16.1
						c1.1,3.8,3.1,7.1,5.8,9.8l-14.4,19c-2.6-2.7-4.6-5.9-5.8-9.8C79.4,38.1,80.5,32.8,83.5,28.8z"/>
				</defs>
				<clipPath id="SVGID_00000167356359094225874840000018036475701143400376_">
					<use xlink:href="#SVGID_00000063613877439835749900000009611541559046673050_"  style="overflow:visible;"/>
				</clipPath>
				
					<linearGradient id="SVGID_00000096020380846064963730000006896799202576092544_" gradientUnits="userSpaceOnUse" x1="197.3469" y1="120.1101" x2="215.3677" y2="115.9496" gradientTransform="matrix(0.9127 0.4085 0.4085 -0.9127 -143.9941 55.5743)">
					<stop  offset="0" style="stop-color:#00668E"/>
					<stop  offset="0.1986" style="stop-color:#2087B0"/>
					<stop  offset="0.4129" style="stop-color:#3CA5CF"/>
					<stop  offset="0.5961" style="stop-color:#4DB7E1"/>
					<stop  offset="0.7253" style="stop-color:#53BDE8"/>
				</linearGradient>
				
					<path style="clip-path:url(#SVGID_00000167356359094225874840000018036475701143400376_);fill:url(#SVGID_00000096020380846064963730000006896799202576092544_);" d="
					M101.5,35.6l-14.4,19c-2.6-2.7-4.6-5.9-5.8-9.8c-2-6.8-0.9-12.1,2.2-16.1l14.4-19c-3,4-4.1,9.3-2.2,16.1
					C96.9,29.7,98.9,33,101.5,35.6"/>
			</g>
		</g>
		<g>
			<g>
				
					<linearGradient id="SVGID_00000044179697300393966950000014078881405896837819_" gradientUnits="userSpaceOnUse" x1="298.441" y1="178.6873" x2="321.6854" y2="173.3209" gradientTransform="matrix(0.9127 0.4085 0.4085 -0.9127 -143.9941 55.5743)">
					<stop  offset="0" style="stop-color:#B54879"/>
					<stop  offset="0.4835" style="stop-color:#8E004D"/>
					<stop  offset="0.7151" style="stop-color:#9C0056"/>
					<stop  offset="0.9176" style="stop-color:#A3005A"/>
				</linearGradient>
				
					<path id="SVGID_00000145764351661899787540000009132059405599833506_" style="fill:url(#SVGID_00000044179697300393966950000014078881405896837819_);" d="
					M231.7,13.9l-12.9,17c-11.5-0.6-17.2-0.9-28.7-1.5l12.9-17C214.5,12.9,220.2,13.2,231.7,13.9z"/>
			</g>
			<g>
				<defs>
					<path id="SVGID_00000046326975187886132310000015187998336187111089_" d="M231.7,13.9l-12.9,17c-11.5-0.6-17.2-0.9-28.7-1.5
						l12.9-17C214.5,12.9,220.2,13.2,231.7,13.9z"/>
				</defs>
				<clipPath id="SVGID_00000081635982758668238810000015741395154760918677_">
					<use xlink:href="#SVGID_00000046326975187886132310000015187998336187111089_"  style="overflow:visible;"/>
				</clipPath>
				
					<linearGradient id="SVGID_00000101080375213752945990000004261100102905697664_" gradientUnits="userSpaceOnUse" x1="298.441" y1="178.6873" x2="321.6854" y2="173.3209" gradientTransform="matrix(0.9127 0.4085 0.4085 -0.9127 -143.9941 55.5743)">
					<stop  offset="0" style="stop-color:#B54879"/>
					<stop  offset="0.4835" style="stop-color:#8E004D"/>
					<stop  offset="0.7151" style="stop-color:#9C0056"/>
					<stop  offset="0.9176" style="stop-color:#A3005A"/>
				</linearGradient>
				
					<path style="clip-path:url(#SVGID_00000081635982758668238810000015741395154760918677_);fill:url(#SVGID_00000101080375213752945990000004261100102905697664_);" d="
					M231.7,13.9l-12.9,17c-11.5-0.6-17.2-0.9-28.7-1.5l12.9-17C214.5,12.9,220.2,13.2,231.7,13.9"/>
			</g>
		</g>
		<g>
			<g>
				
					<linearGradient id="SVGID_00000129174847300561151450000011576164383875143584_" gradientUnits="userSpaceOnUse" x1="278.1546" y1="172.1945" x2="296.0605" y2="168.0606" gradientTransform="matrix(0.9127 0.4085 0.4085 -0.9127 -143.9941 55.5743)">
					<stop  offset="0.1703" style="stop-color:#8E004D"/>
					<stop  offset="0.3724" style="stop-color:#A6095D"/>
					<stop  offset="0.5855" style="stop-color:#B81069"/>
					<stop  offset="0.7363" style="stop-color:#BF126D"/>
					<stop  offset="1" style="stop-color:#CA006F"/>
				</linearGradient>
				
					<path id="SVGID_00000041989772827611056750000013145338139714272898_" style="fill:url(#SVGID_00000129174847300561151450000011576164383875143584_);" d="
					M203,12.3l-12.8,16.9c-2.2-1-4.6-1.9-7-2.7c-4.5-1.4-6.7-2.1-11.2-3.6L184.8,6c4.5,1.5,6.7,2.2,11.2,3.6
					C198.5,10.4,200.8,11.3,203,12.3z"/>
			</g>
			<g>
				<defs>
					<path id="SVGID_00000020392171264075665800000018023335384650950588_" d="M203,12.3l-12.8,16.9c-2.2-1-4.6-1.9-7-2.7
						c-4.5-1.4-6.7-2.1-11.2-3.6L184.8,6c4.5,1.5,6.7,2.2,11.2,3.6C198.5,10.4,200.8,11.3,203,12.3z"/>
				</defs>
				<clipPath id="SVGID_00000145778503993398520590000016925574878552742054_">
					<use xlink:href="#SVGID_00000020392171264075665800000018023335384650950588_"  style="overflow:visible;"/>
				</clipPath>
				
					<linearGradient id="SVGID_00000102546349464115054030000011912357498696457344_" gradientUnits="userSpaceOnUse" x1="278.1546" y1="172.1945" x2="296.0605" y2="168.0606" gradientTransform="matrix(0.9127 0.4085 0.4085 -0.9127 -143.9941 55.5743)">
					<stop  offset="0.1703" style="stop-color:#8E004D"/>
					<stop  offset="0.3724" style="stop-color:#A6095D"/>
					<stop  offset="0.5855" style="stop-color:#B81069"/>
					<stop  offset="0.7363" style="stop-color:#BF126D"/>
					<stop  offset="1" style="stop-color:#CA006F"/>
				</linearGradient>
				
					<path style="clip-path:url(#SVGID_00000145778503993398520590000016925574878552742054_);fill:url(#SVGID_00000102546349464115054030000011912357498696457344_);" d="
					M203,12.3l-12.8,16.9c-2.2-1-4.6-1.9-7-2.7c-4.5-1.4-6.7-2.1-11.2-3.6L184.8,6c4.5,1.5,6.7,2.2,11.2,3.6
					C198.5,10.4,200.8,11.3,203,12.3"/>
			</g>
		</g>
		<polygon class="st8" points="236.5,32.5 223.6,49.6 209.5,49.9 222.4,32.8 		"/>
		
			<linearGradient id="SVGID_00000066515165921615180800000003808843469538663349_" gradientUnits="userSpaceOnUse" x1="324.8844" y1="172.4213" x2="321.8324" y2="178.9664" gradientTransform="matrix(0.9127 0.4085 0.4085 -0.9127 -143.9941 55.5743)">
			<stop  offset="0.1648" style="stop-color:#F2A0C5"/>
			<stop  offset="0.5958" style="stop-color:#ED71AA"/>
			<stop  offset="1" style="stop-color:#E8418F"/>
		</linearGradient>
		<path style="fill:url(#SVGID_00000066515165921615180800000003808843469538663349_);" d="M209.3,18.3c9.3,0.4,14,0.6,23.2,1
			c1.6,5.4,2.5,8.5,3.9,13.2l-14.1,0.3C219.9,26.7,215.4,22,209.3,18.3z"/>
		
			<linearGradient id="SVGID_00000034052489277525429300000015492994096430268080_" gradientUnits="userSpaceOnUse" x1="331.3713" y1="174.6053" x2="343.3961" y2="155.3615" gradientTransform="matrix(0.9127 0.4085 0.4085 -0.9127 -143.9941 55.5743)">
			<stop  offset="0" style="stop-color:#737373"/>
			<stop  offset="2.369857e-02" style="stop-color:#707070"/>
			<stop  offset="0.3099" style="stop-color:#4C4C4B"/>
			<stop  offset="0.5768" style="stop-color:#323231"/>
			<stop  offset="0.8149" style="stop-color:#222221"/>
			<stop  offset="1" style="stop-color:#1D1D1B"/>
		</linearGradient>
		<path style="fill:url(#SVGID_00000034052489277525429300000015492994096430268080_);" d="M236.5,32.5c0.2,0.8,0.5,1.6,0.7,2.4
			c2.7,8.7,3.9,13.1,6.5,21.7c-6,0.7-9,1-15,1.6c-2.8-3.8-4.3-5.8-7.1-9.7c2.4-3.9,3.2-8.3,1.7-13.4c-0.3-0.8-0.6-1.7-0.9-2.5
			L236.5,32.5z"/>
		
			<linearGradient id="SVGID_00000103241816048475029440000008204479932479204229_" gradientUnits="userSpaceOnUse" x1="304.3992" y1="166.2008" x2="323.1556" y2="161.8706" gradientTransform="matrix(0.9127 0.4085 0.4085 -0.9127 -143.9941 55.5743)">
			<stop  offset="3.846150e-02" style="stop-color:#8E004D"/>
			<stop  offset="0.164" style="stop-color:#A6095D"/>
			<stop  offset="0.2964" style="stop-color:#B81069"/>
			<stop  offset="0.3901" style="stop-color:#BF126D"/>
			<stop  offset="0.7088" style="stop-color:#CA006F"/>
		</linearGradient>
		<path style="fill:url(#SVGID_00000103241816048475029440000008204479932479204229_);" d="M200.8,38.5c0.6,0.5,1.1,0.9,1.7,1.4
			c0.1,0.1,0.2,0.2,0.3,0.3c0.4,0.4,0.9,0.8,1.3,1.3c0.1,0.2,0.3,0.3,0.4,0.5c0.4,0.4,0.8,0.9,1.2,1.4c0.1,0.1,0.2,0.2,0.2,0.3
			c0.4,0.6,0.8,1.2,1.2,1.8c0.1,0.2,0.2,0.3,0.3,0.5c0.3,0.5,0.6,1,0.8,1.4c0.1,0.2,0.2,0.4,0.3,0.6c0.3,0.6,0.6,1.3,0.9,2l12.9-17
			c-0.3-0.7-0.6-1.3-0.9-2c-0.1-0.2-0.2-0.4-0.3-0.6c-0.3-0.5-0.5-1-0.8-1.4c-0.1-0.2-0.2-0.3-0.3-0.5c-0.4-0.6-0.8-1.2-1.2-1.8
			c-0.1-0.1-0.2-0.2-0.2-0.3c-0.4-0.5-0.8-0.9-1.2-1.4c-0.1-0.2-0.3-0.3-0.4-0.5c-0.4-0.4-0.8-0.9-1.3-1.3c-0.1-0.1-0.2-0.2-0.3-0.3
			c-0.5-0.4-1-0.9-1.5-1.3c-0.1,0-0.1-0.1-0.2-0.1c-0.5-0.4-0.9-0.7-1.4-1.1c-0.2-0.2-0.5-0.4-0.7-0.5c-0.7-0.5-1.5-1-2.3-1.5
			l-12.9,17c0.8,0.5,1.6,1,2.3,1.5c0.2,0.2,0.5,0.3,0.7,0.5C199.8,37.7,200.3,38.1,200.8,38.5z"/>
		
			<linearGradient id="SVGID_00000028307304194617537200000002720983527701039264_" gradientUnits="userSpaceOnUse" x1="320.9328" y1="153.8477" x2="330.154" y2="151.5486" gradientTransform="matrix(0.9127 0.4085 0.4085 -0.9127 -143.9941 55.5743)">
			<stop  offset="0" style="stop-color:#474747"/>
			<stop  offset="0.9011" style="stop-color:#171717"/>
		</linearGradient>
		<path style="fill:url(#SVGID_00000028307304194617537200000002720983527701039264_);" d="M223.2,35.3c-0.3-0.8-0.6-1.6-0.9-2.5
			l-12.9,17c0.3,0.8,0.6,1.6,0.9,2.5c1.5,5,0.8,9.5-1.7,13.3l12.9-17C224,44.7,224.7,40.3,223.2,35.3z"/>
		<g>
			<g>
				
					<linearGradient id="SVGID_00000101095241714970909570000002314533572430893482_" gradientUnits="userSpaceOnUse" x1="340.064" y1="144.5336" x2="350.7582" y2="142.0647" gradientTransform="matrix(0.9127 0.4085 0.4085 -0.9127 -143.9941 55.5743)">
					<stop  offset="0.2033" style="stop-color:#171717"/>
					<stop  offset="1" style="stop-color:#333333"/>
				</linearGradient>
				
					<path id="SVGID_00000102527833045955455790000002505099160097325708_" style="fill:url(#SVGID_00000101095241714970909570000002314533572430893482_);" d="
					M243.7,56.6l-12.9,17c-6,0.7-9,1-15,1.6l12.9-17C234.7,57.6,237.7,57.3,243.7,56.6z"/>
			</g>
			<g>
				<defs>
					<path id="SVGID_00000077282961745072383440000010120742247762815633_" d="M243.7,56.6l-12.9,17c-6,0.7-9,1-15,1.6l12.9-17
						C234.7,57.6,237.7,57.3,243.7,56.6z"/>
				</defs>
				<clipPath id="SVGID_00000031183714683941524080000017080072033796536738_">
					<use xlink:href="#SVGID_00000077282961745072383440000010120742247762815633_"  style="overflow:visible;"/>
				</clipPath>
				
					<linearGradient id="SVGID_00000158734709346815273650000014786266494072337338_" gradientUnits="userSpaceOnUse" x1="340.064" y1="144.5336" x2="350.7582" y2="142.0647" gradientTransform="matrix(0.9127 0.4085 0.4085 -0.9127 -143.9941 55.5743)">
					<stop  offset="0.2033" style="stop-color:#171717"/>
					<stop  offset="1" style="stop-color:#333333"/>
				</linearGradient>
				
					<path style="clip-path:url(#SVGID_00000031183714683941524080000017080072033796536738_);fill:url(#SVGID_00000158734709346815273650000014786266494072337338_);" d="
					M243.7,56.6l-12.9,17c-6,0.7-9,1-15,1.6l12.9-17C234.7,57.6,237.7,57.3,243.7,56.6"/>
			</g>
		</g>
		<g>
			<g>
				
					<linearGradient id="SVGID_00000033345739180549813390000008887816528556621235_" gradientUnits="userSpaceOnUse" x1="327.6874" y1="144.0032" x2="339.6395" y2="140.8007" gradientTransform="matrix(0.9127 0.4085 0.4085 -0.9127 -143.9941 55.5743)">
					<stop  offset="0.1703" style="stop-color:#171717"/>
					<stop  offset="0.6043" style="stop-color:#272727"/>
					<stop  offset="0.9451" style="stop-color:#2E2E2E"/>
				</linearGradient>
				
					<path id="SVGID_00000147198732675388093540000001395489054467354013_" style="fill:url(#SVGID_00000033345739180549813390000008887816528556621235_);" d="
					M228.7,58.3l-12.9,17c-2.8-3.8-4.3-5.7-7.1-9.7l12.9-17C224.4,52.5,225.9,54.5,228.7,58.3z"/>
			</g>
			<g>
				<defs>
					<path id="SVGID_00000132789073184011603760000009689584268477935798_" d="M228.7,58.3l-12.9,17c-2.8-3.8-4.3-5.7-7.1-9.7
						l12.9-17C224.4,52.5,225.9,54.5,228.7,58.3z"/>
				</defs>
				<clipPath id="SVGID_00000055690537549904222470000012002993147653576354_">
					<use xlink:href="#SVGID_00000132789073184011603760000009689584268477935798_"  style="overflow:visible;"/>
				</clipPath>
				
					<linearGradient id="SVGID_00000067943271259941530110000002960121532835192494_" gradientUnits="userSpaceOnUse" x1="327.6874" y1="144.0032" x2="339.6395" y2="140.8007" gradientTransform="matrix(0.9127 0.4085 0.4085 -0.9127 -143.9941 55.5743)">
					<stop  offset="0.1703" style="stop-color:#171717"/>
					<stop  offset="0.6043" style="stop-color:#272727"/>
					<stop  offset="0.9451" style="stop-color:#2E2E2E"/>
				</linearGradient>
				
					<path style="clip-path:url(#SVGID_00000055690537549904222470000012002993147653576354_);fill:url(#SVGID_00000067943271259941530110000002960121532835192494_);" d="
					M228.7,58.3l-12.9,17c-2.8-3.8-4.3-5.7-7.1-9.7l12.9-17C224.4,52.5,225.9,54.5,228.7,58.3"/>
			</g>
		</g>
		<polygon class="st8" points="214.4,32.7 200.8,50.6 172.8,51.1 186.3,33.2 		"/>
		
			<linearGradient id="SVGID_00000124156047334729111810000010142003322590946207_" gradientUnits="userSpaceOnUse" x1="269.7947" y1="147.5936" x2="289.5632" y2="143.0296" gradientTransform="matrix(0.9127 0.4085 0.4085 -0.9127 -143.9941 55.5743)">
			<stop  offset="0.1703" style="stop-color:#8E004D"/>
			<stop  offset="0.4048" style="stop-color:#9C0056"/>
			<stop  offset="0.6099" style="stop-color:#A3005A"/>
			<stop  offset="1" style="stop-color:#CA006F"/>
		</linearGradient>
		<path style="fill:url(#SVGID_00000124156047334729111810000010142003322590946207_);" d="M160.3,42.7c0.1,0,0.3,0,0.4,0.1
			c0.5,0.1,0.9,0.2,1.4,0.3h0.1c0.4,0.1,0.8,0.2,1.2,0.4c0.1,0.1,0.3,0.1,0.4,0.2c0.3,0.1,0.6,0.2,0.8,0.3s0.3,0.1,0.5,0.2
			c0.3,0.1,0.5,0.2,0.8,0.3c0.1,0.1,0.3,0.1,0.4,0.2c0.5,0.2,0.9,0.5,1.4,0.8c0.1,0,0.1,0.1,0.2,0.1c0.4,0.3,0.8,0.5,1.1,0.8
			c0.1,0.1,0.2,0.1,0.2,0.2c0.3,0.3,0.7,0.6,1,0.9c0,0,0,0.1,0.1,0.1c0.3,0.3,0.5,0.6,0.8,0.9c0.1,0.1,0.2,0.2,0.2,0.3
			c0.2,0.3,0.4,0.5,0.6,0.8c0.1,0.1,0.1,0.2,0.2,0.3c0.2,0.4,0.5,0.8,0.7,1.2l13.5-17.9c-0.2-0.4-0.4-0.8-0.6-1.2
			c-0.1-0.1-0.1-0.2-0.2-0.3c-0.2-0.3-0.4-0.5-0.6-0.8c-0.1-0.1-0.2-0.2-0.3-0.3c-0.2-0.3-0.5-0.6-0.8-0.9l-0.1-0.1
			c-0.3-0.3-0.6-0.6-1-0.9l-0.1-0.1c-0.1,0-0.1-0.1-0.2-0.1c-0.4-0.3-0.7-0.6-1.1-0.8c-0.1,0-0.1-0.1-0.2-0.1
			c-0.4-0.3-0.9-0.5-1.4-0.8l-0.1-0.1c-0.1,0-0.2-0.1-0.3-0.1c-0.2-0.1-0.5-0.2-0.8-0.3c-0.2-0.1-0.3-0.1-0.5-0.2
			c-0.3-0.1-0.6-0.2-0.9-0.3c-0.1-0.1-0.3-0.1-0.4-0.1c-0.4-0.1-0.8-0.3-1.3-0.4h-0.1c-0.5-0.1-0.9-0.2-1.4-0.3h-0.1
			c-0.1,0-0.2,0-0.2,0c-0.5-0.1-1-0.2-1.4-0.2c-0.1,0-0.3,0-0.5-0.1c-0.6-0.1-1.2-0.2-1.8-0.2c-0.8-0.1-1.6-0.1-2.4-0.1l-13.6,17.9
			c0.8,0,1.6,0.1,2.4,0.1c0.6,0.1,1.2,0.1,1.8,0.2c0.2,0,0.3,0,0.5,0.1C159.4,42.5,159.9,42.6,160.3,42.7z"/>
		<polygon class="st18" points="167.8,24.1 154.2,42 149.2,23.7 162.7,5.8 		"/>
		<path class="st19" d="M167.5,24.1c-0.7,0-1.1,0-1.8,0L152.1,42c0.7,0,1,0,1.8,0c0.1,0,0.2,0,0.4,0l13.6-17.8
			C167.7,24.2,167.6,24.1,167.5,24.1z"/>
		
			<linearGradient id="SVGID_00000046323899578316519700000018086081610085913483_" gradientUnits="userSpaceOnUse" x1="289.0982" y1="140.9171" x2="294.4846" y2="139.6735" gradientTransform="matrix(0.9127 0.4085 0.4085 -0.9127 -143.9941 55.5743)">
			<stop  offset="0.1813" style="stop-color:#1C1C1C"/>
			<stop  offset="0.355" style="stop-color:#272727"/>
			<stop  offset="0.6619" style="stop-color:#454545"/>
			<stop  offset="0.8791" style="stop-color:#5E5E5E"/>
		</linearGradient>
		<path style="fill:url(#SVGID_00000046323899578316519700000018086081610085913483_);" d="M187.3,35.7c-0.3-0.9-0.6-1.7-0.9-2.5
			l-13.6,18c0.4,0.8,0.7,1.5,0.9,2.5c0.8,2.7,0.4,4.9-0.9,6.6l13.6-17.9C187.7,40.7,188.1,38.5,187.3,35.7z"/>
		
			<linearGradient id="SVGID_00000161632853395405251420000002449112158392618408_" gradientUnits="userSpaceOnUse" x1="299.4329" y1="127.86" x2="317.7414" y2="123.6331" gradientTransform="matrix(0.9127 0.4085 0.4085 -0.9127 -143.9941 55.5743)">
			<stop  offset="0.3242" style="stop-color:#696969"/>
			<stop  offset="0.4678" style="stop-color:#4D4D4D"/>
			<stop  offset="0.6457" style="stop-color:#313131"/>
			<stop  offset="0.8016" style="stop-color:#202020"/>
			<stop  offset="0.9176" style="stop-color:#1A1A1A"/>
		</linearGradient>
		<path style="fill:url(#SVGID_00000161632853395405251420000002449112158392618408_);" d="M196.3,72.1c0.2-0.1,0.3-0.3,0.5-0.4
			c0.3-0.3,0.6-0.5,0.8-0.8c0.1-0.1,0.3-0.3,0.4-0.4c0.4-0.4,0.7-0.9,1.1-1.3l13.5-18c-0.3,0.4-0.7,0.9-1.1,1.3
			c-0.1,0.1-0.3,0.3-0.4,0.4c-0.3,0.3-0.5,0.6-0.8,0.8c-0.2,0.2-0.3,0.3-0.5,0.4c-0.3,0.2-0.5,0.5-0.8,0.7c-0.2,0.1-0.3,0.3-0.5,0.4
			c-0.3,0.3-0.7,0.5-1,0.7c-0.1,0.1-0.3,0.2-0.4,0.3c-0.5,0.3-1,0.7-1.5,1c-0.1,0.1-0.2,0.1-0.4,0.2c-0.4,0.2-0.8,0.5-1.2,0.7
			c-0.2,0.1-0.4,0.2-0.6,0.3c-0.4,0.2-0.7,0.4-1.1,0.6c-0.2,0.1-0.4,0.2-0.6,0.3c-0.4,0.2-0.9,0.4-1.3,0.6c-0.1,0.1-0.3,0.1-0.4,0.2
			c-0.6,0.2-1.1,0.5-1.7,0.7c-0.2,0.1-0.3,0.1-0.5,0.2c-0.4,0.2-0.9,0.3-1.3,0.5c-0.2,0.1-0.4,0.1-0.6,0.2c-0.4,0.1-0.8,0.3-1.2,0.4
			c-0.2,0.1-0.4,0.1-0.6,0.2c-0.5,0.1-1,0.3-1.5,0.4c-0.1,0-0.2,0-0.3,0.1c-0.6,0.1-1.2,0.3-1.8,0.4c-0.2,0-0.3,0.1-0.5,0.1
			c-0.4,0.1-0.9,0.2-1.3,0.2c-0.2,0-0.4,0.1-0.6,0.1c-0.4,0.1-0.8,0.1-1.2,0.2c-0.2,0-0.4,0.1-0.5,0.1c-0.6,0.1-1.2,0.1-1.7,0.2
			c-1.1,0.1-1.7,0.2-2.7,0.3c-1,0.1-2,0.2-3,0.3l-13.6,17.9c1-0.1,2-0.2,3-0.3c1-0.1,1.6-0.2,2.7-0.3c0.6-0.1,1.1-0.1,1.7-0.2
			c0.2,0,0.4-0.1,0.5-0.1c0.4-0.1,0.8-0.1,1.3-0.2c0.2,0,0.4-0.1,0.6-0.1c0.4-0.1,0.9-0.2,1.3-0.2c0.2,0,0.3-0.1,0.5-0.1
			c0.6-0.1,1.2-0.3,1.8-0.4c0.1,0,0.1,0,0.2-0.1c0.5-0.1,1.1-0.3,1.6-0.4c0.2-0.1,0.4-0.1,0.6-0.2c0.4-0.1,0.8-0.3,1.3-0.4
			c0.2-0.1,0.4-0.1,0.6-0.2c0.5-0.2,0.9-0.3,1.3-0.5c0.1-0.1,0.3-0.1,0.4-0.2c0.6-0.2,1.2-0.4,1.7-0.7c0.1,0,0.2-0.1,0.4-0.2
			c0.4-0.2,0.9-0.4,1.3-0.6c0.2-0.1,0.4-0.2,0.6-0.3c0.4-0.2,0.7-0.4,1.1-0.6c0.2-0.1,0.4-0.2,0.5-0.3c0.4-0.2,0.8-0.5,1.2-0.7
			c0.1-0.1,0.2-0.1,0.4-0.2c0.5-0.3,1-0.6,1.5-1c0.1-0.1,0.3-0.2,0.4-0.3c0.2-0.2,0.5-0.3,0.7-0.5c0.1-0.1,0.2-0.1,0.3-0.2
			c0.2-0.1,0.4-0.3,0.5-0.4C195.8,72.6,196,72.3,196.3,72.1z"/>
		<polygon class="st22" points="179,64.6 165.4,82.5 160.6,64.8 174.1,46.9 		"/>
		
			<linearGradient id="SVGID_00000158730721168946930330000008808516981490895792_" gradientUnits="userSpaceOnUse" x1="269.9019" y1="145.8115" x2="259.0173" y2="169.1536" gradientTransform="matrix(0.9127 0.4085 0.4085 -0.9127 -143.9941 55.5743)">
			<stop  offset="0" style="stop-color:#A0D9F7"/>
			<stop  offset="1" style="stop-color:#009EE2"/>
		</linearGradient>
		<path style="fill:url(#SVGID_00000158730721168946930330000008808516981490895792_);" d="M160.8,5.6c0.6,0,1.3,0.1,1.9,0.2
			l5.1,18.4c-0.1,0-0.2,0-0.4,0c-0.7,0-1.1,0-1.8,0c1.1,3.9,1.8,6.2,2.8,9.5l-13,0.3C157.2,24.4,158.9,15,160.8,5.6z"/>
		<polygon class="st24" points="168.5,33.6 154.9,51.5 141.9,51.8 155.5,33.9 		"/>
		<g>
			<g>
				
					<linearGradient id="SVGID_00000132076667715349819950000006280462189284465824_" gradientUnits="userSpaceOnUse" x1="252.4018" y1="146.6989" x2="264.8883" y2="143.8162" gradientTransform="matrix(0.9127 0.4085 0.4085 -0.9127 -143.9941 55.5743)">
					<stop  offset="0" style="stop-color:#00668E"/>
					<stop  offset="0.2892" style="stop-color:#0085B3"/>
					<stop  offset="0.5786" style="stop-color:#009DD2"/>
					<stop  offset="0.8257" style="stop-color:#00ADE4"/>
					<stop  offset="1" style="stop-color:#00B2EB"/>
				</linearGradient>
				
					<path id="SVGID_00000132771700763217325930000009019107059481071775_" style="fill:url(#SVGID_00000132076667715349819950000006280462189284465824_);" d="
					M155.5,33.9l-13.6,17.9c1.7-9.5,3.4-18.9,5.4-28.3l13.6-17.9C158.9,15,157.2,24.4,155.5,33.9z"/>
			</g>
			<g>
				<defs>
					<path id="SVGID_00000142871835469921446210000010256588634409510029_" d="M155.5,33.9l-13.6,17.9c1.7-9.5,3.4-18.9,5.4-28.3
						l13.6-17.9C158.9,15,157.2,24.4,155.5,33.9z"/>
				</defs>
				<clipPath id="SVGID_00000152977987584310915320000001517438192439698835_">
					<use xlink:href="#SVGID_00000142871835469921446210000010256588634409510029_"  style="overflow:visible;"/>
				</clipPath>
				
					<linearGradient id="SVGID_00000121265322132235309660000008456044403772075396_" gradientUnits="userSpaceOnUse" x1="252.4018" y1="146.6989" x2="264.8883" y2="143.8162" gradientTransform="matrix(0.9127 0.4085 0.4085 -0.9127 -143.9941 55.5743)">
					<stop  offset="0" style="stop-color:#00668E"/>
					<stop  offset="0.2892" style="stop-color:#0085B3"/>
					<stop  offset="0.5786" style="stop-color:#009DD2"/>
					<stop  offset="0.8257" style="stop-color:#00ADE4"/>
					<stop  offset="1" style="stop-color:#00B2EB"/>
				</linearGradient>
				
					<path style="clip-path:url(#SVGID_00000152977987584310915320000001517438192439698835_);fill:url(#SVGID_00000121265322132235309660000008456044403772075396_);" d="
					M155.5,33.9l-13.6,17.9c1.7-9.5,3.4-18.9,5.4-28.3l13.6-17.9C158.9,15,157.2,24.4,155.5,33.9"/>
			</g>
		</g>
		<g>
			<g>
				
					<linearGradient id="SVGID_00000139994459799391603230000013856321302455124374_" gradientUnits="userSpaceOnUse" x1="272.0925" y1="107.5472" x2="294.956" y2="103.5158" gradientTransform="matrix(0.9127 0.4085 0.4085 -0.9127 -143.9941 55.5743)">
					<stop  offset="0" style="stop-color:#837A00"/>
					<stop  offset="0.3352" style="stop-color:#A09400"/>
					<stop  offset="0.8516" style="stop-color:#E5D343"/>
				</linearGradient>
				
					<path id="SVGID_00000122683311782897461650000006281208844461714872_" style="fill:url(#SVGID_00000139994459799391603230000013856321302455124374_);" d="
					M179,64.6l-13.6,17.9c-9.6,1-19.1,2.1-28.7,3.1l13.6-17.9C159.9,66.7,169.4,65.6,179,64.6z"/>
			</g>
			<g>
				<defs>
					<path id="SVGID_00000131345037616096669530000017878953331062273714_" d="M179,64.6l-13.6,17.9c-9.6,1-19.1,2.1-28.7,3.1
						l13.6-17.9C159.9,66.7,169.4,65.6,179,64.6z"/>
				</defs>
				<clipPath id="SVGID_00000160875720627228166620000004100054478690108072_">
					<use xlink:href="#SVGID_00000131345037616096669530000017878953331062273714_"  style="overflow:visible;"/>
				</clipPath>
				
					<linearGradient id="SVGID_00000037693629665705820030000014683901475075331466_" gradientUnits="userSpaceOnUse" x1="272.0925" y1="107.5472" x2="294.956" y2="103.5158" gradientTransform="matrix(0.9127 0.4085 0.4085 -0.9127 -143.9941 55.5743)">
					<stop  offset="0" style="stop-color:#837A00"/>
					<stop  offset="0.3352" style="stop-color:#A09400"/>
					<stop  offset="0.8516" style="stop-color:#E5D343"/>
				</linearGradient>
				
					<path style="clip-path:url(#SVGID_00000160875720627228166620000004100054478690108072_);fill:url(#SVGID_00000037693629665705820030000014683901475075331466_);" d="
					M179,64.6l-13.6,17.9c-9.6,1-19.1,2.1-28.7,3.1l13.6-17.9C159.9,66.7,169.4,65.6,179,64.6"/>
			</g>
		</g>
		
			<linearGradient id="SVGID_00000043459560507815434210000006123135086047886495_" gradientUnits="userSpaceOnUse" x1="258.7224" y1="116.1188" x2="274.3282" y2="113.3671" gradientTransform="matrix(0.9127 0.4085 0.4085 -0.9127 -143.9941 55.5743)">
			<stop  offset="2.747250e-02" style="stop-color:#736B00"/>
			<stop  offset="0.544" style="stop-color:#C7B700"/>
			<stop  offset="0.8516" style="stop-color:#D2C232"/>
		</linearGradient>
		<path style="fill:url(#SVGID_00000043459560507815434210000006123135086047886495_);" d="M155.1,36.4c0.1-0.8,0.2-1.6,0.4-2.5
			l-13.6,17.9c-0.1,0.8-0.3,1.6-0.4,2.5c-1.8,10.4-3.3,20.8-4.8,31.3l13.6-17.9C151.8,57.2,153.3,46.8,155.1,36.4z"/>
		
			<linearGradient id="SVGID_00000011713045911161808030000011825330442513563324_" gradientUnits="userSpaceOnUse" x1="292.775" y1="160.3505" x2="285.4705" y2="176.0149" gradientTransform="matrix(0.9127 0.4085 0.4085 -0.9127 -143.9941 55.5743)">
			<stop  offset="0" style="stop-color:#F19DC3"/>
			<stop  offset="6.486350e-02" style="stop-color:#EF88BA"/>
			<stop  offset="0.2118" style="stop-color:#EC5FA8"/>
			<stop  offset="0.3623" style="stop-color:#EA3D99"/>
			<stop  offset="0.5147" style="stop-color:#E8228D"/>
			<stop  offset="0.6699" style="stop-color:#E60F85"/>
			<stop  offset="0.8293" style="stop-color:#E50480"/>
			<stop  offset="1" style="stop-color:#E5007E"/>
		</linearGradient>
		<path style="fill:url(#SVGID_00000011713045911161808030000011825330442513563324_);" d="M162.7,5.8c0.7,0.1,1.5,0.1,2.2,0.2
			c16.8,1.7,42.2,8.3,49.5,26.7l-28.1,0.5c-2.7-5.5-8.4-8.3-16.1-9c-0.8-0.1-1.6-0.1-2.4-0.1L162.7,5.8z"/>
		
			<linearGradient id="SVGID_00000001637015872905688740000017224659333970686612_" gradientUnits="userSpaceOnUse" x1="274.1134" y1="143.8707" x2="286.8879" y2="114.5817" gradientTransform="matrix(0.9127 0.4085 0.4085 -0.9127 -143.9941 55.5743)">
			<stop  offset="0" style="stop-color:#FFF49A"/>
			<stop  offset="9.090412e-02" style="stop-color:#FFF384"/>
			<stop  offset="0.3053" style="stop-color:#FFF055"/>
			<stop  offset="0.51" style="stop-color:#FFEE30"/>
			<stop  offset="0.6996" style="stop-color:#FFED16"/>
			<stop  offset="0.8686" style="stop-color:#FFEC06"/>
			<stop  offset="1" style="stop-color:#FFEC00"/>
		</linearGradient>
		<path style="fill:url(#SVGID_00000001637015872905688740000017224659333970686612_);" d="M168.5,33.6c0.2,0.8,0.5,1.6,0.7,2.5
			c1.3,4.4,2,6.6,3.2,10.9c0.7,0,1-0.1,1.7-0.1l4.9,17.6c-9.6,1-19.1,2.1-28.7,3.1c1.5-10.5,3-20.9,4.8-31.3
			c0.1-0.8,0.2-1.6,0.4-2.5L168.5,33.6z"/>
		
			<linearGradient id="SVGID_00000012468657756398125280000017929709129952565422_" gradientUnits="userSpaceOnUse" x1="299.6588" y1="157.7733" x2="311.9059" y2="138.1739" gradientTransform="matrix(0.9127 0.4085 0.4085 -0.9127 -143.9941 55.5743)">
			<stop  offset="0" style="stop-color:#737373"/>
			<stop  offset="2.369857e-02" style="stop-color:#707070"/>
			<stop  offset="0.3099" style="stop-color:#4C4C4B"/>
			<stop  offset="0.5768" style="stop-color:#323231"/>
			<stop  offset="0.8149" style="stop-color:#222221"/>
			<stop  offset="1" style="stop-color:#1D1D1B"/>
		</linearGradient>
		<path style="fill:url(#SVGID_00000012468657756398125280000017929709129952565422_);" d="M214.5,32.7c0.3,0.8,0.6,1.6,0.9,2.5
			c5.2,18.5-15.2,27.2-30.6,28.8c-1.1,0.1-1.7,0.2-2.7,0.3c-1,0.1-2,0.2-3,0.3L174.2,47c0.9-0.1,1.8-0.1,2.7-0.3
			c7.6-1,12.4-4.4,10.5-10.9c-0.3-0.9-0.6-1.7-0.9-2.5L214.5,32.7z"/>
		
			<linearGradient id="SVGID_00000127011655323016901950000016458396113172399541_" gradientUnits="userSpaceOnUse" x1="229.8555" y1="135.5712" x2="250.8215" y2="130.7309" gradientTransform="matrix(0.9127 0.4085 0.4085 -0.9127 -143.9941 55.5743)">
			<stop  offset="0.2912" style="stop-color:#00668E"/>
			<stop  offset="0.4962" style="stop-color:#0085B3"/>
			<stop  offset="0.7013" style="stop-color:#009DD2"/>
			<stop  offset="0.8764" style="stop-color:#00ADE4"/>
			<stop  offset="1" style="stop-color:#00B2EB"/>
		</linearGradient>
		<path style="fill:url(#SVGID_00000127011655323016901950000016458396113172399541_);" d="M121,38.9c0.6,0.1,1.2,0.2,1.8,0.4
			c0.1,0,0.2,0,0.2,0.1c0.7,0.2,1.4,0.4,2.1,0.6c0.2,0.1,0.4,0.1,0.6,0.2c0.6,0.2,1.1,0.4,1.7,0.6c0.2,0.1,0.3,0.1,0.5,0.2
			c0.7,0.3,1.4,0.5,2.1,0.8c0.1,0.1,0.3,0.1,0.4,0.2c0.6,0.2,1.1,0.5,1.7,0.7c0.2,0.1,0.4,0.2,0.6,0.3c0.7,0.3,1.3,0.6,2,0.9
			l14.4-19c-0.7-0.3-1.3-0.6-2-0.9c-0.2-0.1-0.4-0.2-0.6-0.2c-0.6-0.2-1.1-0.5-1.7-0.7c-0.1-0.1-0.3-0.1-0.4-0.2
			c-0.7-0.3-1.4-0.5-2.1-0.8c-0.2-0.1-0.3-0.1-0.5-0.2c-0.6-0.2-1.1-0.4-1.7-0.6c-0.2-0.1-0.4-0.1-0.6-0.2c-0.7-0.2-1.4-0.4-2.1-0.6
			c-0.1,0-0.2,0-0.2-0.1c-0.5-0.1-0.9-0.2-1.4-0.3c-0.1,0-0.2,0-0.3-0.1c-0.6-0.1-1.2-0.2-1.8-0.3c-0.3,0-0.6-0.1-0.9-0.1
			c-0.9-0.1-1.8-0.2-2.7-0.2c-0.2,0-0.4,0-0.7,0c-0.2,0-0.4,0-0.6,0c-0.1,0-0.1,0-0.2,0c-0.1,0-0.3,0-0.4,0c-0.1,0-0.2,0-0.2,0
			c-0.1,0-0.3,0-0.4,0.1c-0.1,0-0.1,0-0.2,0c-0.1,0-0.3,0.1-0.4,0.1c-0.1,0-0.1,0-0.2,0.1c-0.2,0-0.3,0.1-0.4,0.2h-0.1
			c-0.2,0.1-0.3,0.2-0.5,0.2c0,0-0.1,0-0.1,0.1c-0.1,0.1-0.2,0.1-0.3,0.2l0,0c-0.2,0.1-0.3,0.3-0.4,0.4l-14.4,19
			c0.1-0.2,0.3-0.3,0.4-0.4c0.1-0.1,0.2-0.1,0.3-0.2c0,0,0.1,0,0.1-0.1c0.2-0.1,0.3-0.2,0.5-0.2h0.1c0.1-0.1,0.3-0.1,0.5-0.2
			c0.1,0,0.1,0,0.2-0.1c0.1,0,0.3-0.1,0.4-0.1s0.1,0,0.2,0s0.3,0,0.4-0.1c0.1,0,0.1,0,0.2,0s0.3,0,0.4,0s0.1,0,0.2,0
			c0.2,0,0.4,0,0.6,0s0.4,0,0.7,0c0.9,0,1.8,0.1,2.7,0.2c0.3,0,0.6,0.1,0.9,0.1C119.8,38.7,120.4,38.8,121,38.9z"/>
		
			<linearGradient id="SVGID_00000108287971851416196380000000613581961870034866_" gradientUnits="userSpaceOnUse" x1="235.399" y1="129.5518" x2="224.127" y2="153.7244" gradientTransform="matrix(0.9127 0.4085 0.4085 -0.9127 -143.9941 55.5743)">
			<stop  offset="0" style="stop-color:#A0D9F7"/>
			<stop  offset="1" style="stop-color:#009EE2"/>
		</linearGradient>
		<path style="fill:url(#SVGID_00000108287971851416196380000000613581961870034866_);" d="M119.6,0.8c1.5,0,2.9,0,4.4,0.1
			c9.5,0.8,18.9,3.3,28.2,7.5c-1.4,6.3-2,9.6-3.3,16.2c-5.9-2.8-12.4-5.2-18.9-5.4c-0.2,0-0.4,0-0.6,0c-2.5,0.1-5.5,0.9-4.8,3.5
			s4.6,3,7,3.5c2.9,0.5,4.3,0.8,7.1,1.3c3.5,0.6,6.7,1.5,9.8,2.5c-0.3,1.9-0.5,3.2-0.8,4.6l-46.2,1c-2.6-2.7-4.6-5.9-5.8-9.8
			C90.8,9.2,104.6,1.1,119.6,0.8z"/>
		<polygon class="st24" points="147.8,34.7 133.4,53.7 87.1,54.6 101.5,35.6 		"/>
		<path class="st35" d="M136.2,51.3l-14.4,19c0.5-0.6,0.6-1.4,0.4-2.3c-0.9-3.1-4.8-3.2-7.7-3.5c-2.5-0.3-3.7-0.4-6.2-0.7
			c-6.7-0.8-13.3-2.9-18.4-6.7l14.4-19c5.1,3.8,11.6,6,18.3,6.7c2.5,0.3,3.7,0.4,6.2,0.7c2.8,0.4,6.8,0.5,7.7,3.5
			C136.8,49.9,136.6,50.7,136.2,51.3z"/>
		
			<linearGradient id="SVGID_00000183970493837030974410000005345524362161314951_" gradientUnits="userSpaceOnUse" x1="214.4383" y1="112.2631" x2="250.6198" y2="103.9099" gradientTransform="matrix(0.9127 0.4085 0.4085 -0.9127 -143.9941 55.5743)">
			<stop  offset="0.1758" style="stop-color:#D2C232"/>
			<stop  offset="0.5604" style="stop-color:#837A00"/>
			<stop  offset="1" style="stop-color:#736B00"/>
		</linearGradient>
		<path style="fill:url(#SVGID_00000183970493837030974410000005345524362161314951_);" d="M136.5,49c-0.2-0.8-0.6-1.4-1.2-1.8
			c-0.3-0.2-0.6-0.4-0.9-0.6c-0.6-0.3-1.4-0.5-2.1-0.7c-1.2-0.2-2.4-0.3-3.5-0.5c-2.5-0.3-3.7-0.4-6.2-0.7c-1.4-0.2-2.8-0.4-4.2-0.7
			c-3.4-0.7-6.6-1.8-9.6-3.2c-1.6-0.8-3.1-1.7-4.6-2.8c-0.4-0.3-0.8-0.7-1.2-1c-0.6-0.5-1.1-1-1.6-1.5L87,54.5c0.5,0.5,1,1,1.6,1.5
			c0.1,0.1,0.1,0.1,0.2,0.2c0.4,0.3,0.7,0.6,1.1,0.8c1.4,1.1,2.9,2,4.6,2.8c3,1.5,6.2,2.5,9.6,3.2c1.4,0.3,2.8,0.5,4.2,0.7
			c2.5,0.3,3.7,0.4,6.2,0.7c1.1,0.1,2.3,0.2,3.5,0.5c0.8,0.2,1.5,0.4,2.1,0.7c0.3,0.2,0.6,0.4,0.9,0.6c0.5,0.5,1,1,1.2,1.8
			c0.3,0.9,0.1,1.6-0.4,2.3l14.4-19C136.6,50.7,136.8,49.9,136.5,49z"/>
		
			<linearGradient id="SVGID_00000124853600727540375550000017605631948975145620_" gradientUnits="userSpaceOnUse" x1="236.4166" y1="129.2786" x2="251.2949" y2="94.2274" gradientTransform="matrix(0.9127 0.4085 0.4085 -0.9127 -143.9941 55.5743)">
			<stop  offset="0" style="stop-color:#FFF49A"/>
			<stop  offset="9.090412e-02" style="stop-color:#FFF384"/>
			<stop  offset="0.3053" style="stop-color:#FFF055"/>
			<stop  offset="0.51" style="stop-color:#FFEE30"/>
			<stop  offset="0.6996" style="stop-color:#FFED16"/>
			<stop  offset="0.8686" style="stop-color:#FFEC06"/>
			<stop  offset="1" style="stop-color:#FFEC00"/>
		</linearGradient>
		<path style="fill:url(#SVGID_00000124853600727540375550000017605631948975145620_);" d="M147.7,34.6c-0.1,0.8-0.3,1.6-0.4,2.6
			c-1.8,11-3.4,22-5,33.1c0,0-0.1,0.3-0.2,1c-1.3,0.2-3,0.5-4.3,0.6c-2.1,0.2-4.2,0.4-6.4,0.4c-8.5,0.2-17.4-1.1-26.2-3.9
			c1.1-8.8,1.7-13.1,2.9-21.5c0.7,0.4,1.1,0.6,1.8,1c6,3.3,12.8,5.7,19.3,5.6c0.3,0,0.6,0,0.9,0c2.9-0.2,7.2-1.5,6.3-4.5
			c-0.9-3.1-4.8-3.2-7.7-3.5c-2.5-0.3-3.7-0.4-6.2-0.7c-6.7-0.8-13.3-2.9-18.3-6.7c-1-0.8-2-1.6-2.8-2.5L147.7,34.6z"/>
		
			<linearGradient id="SVGID_00000113352598397135356160000002432085647900621722_" gradientUnits="userSpaceOnUse" x1="221.7993" y1="90.0405" x2="263.0757" y2="81.267" gradientTransform="matrix(0.9127 0.4085 0.4085 -0.9127 -143.9941 55.5743)">
			<stop  offset="0" style="stop-color:#C5B630"/>
			<stop  offset="0.2637" style="stop-color:#837A00"/>
			<stop  offset="0.5385" style="stop-color:#E9D744"/>
			<stop  offset="1" style="stop-color:#A09400"/>
		</linearGradient>
		<path style="fill:url(#SVGID_00000113352598397135356160000002432085647900621722_);" d="M137.9,72c-2.1,0.2-4.2,0.4-6.4,0.4
			c-1.3,0-2.6,0-3.9,0c-0.4,0-0.8,0-1.2,0c-1,0-2-0.1-3-0.2c-0.4,0-0.7-0.1-1.1-0.1c-1.3-0.1-2.6-0.3-4-0.5c-0.1,0-0.3-0.1-0.5-0.1
			c-1.2-0.2-2.4-0.4-3.6-0.6c-0.4-0.1-0.8-0.2-1.2-0.3c-0.9-0.2-1.9-0.4-2.8-0.6c-0.4-0.1-0.8-0.2-1.2-0.3c-1.3-0.3-2.6-0.7-3.9-1.1
			c1.1-8.8,1.7-13.1,2.9-21.5l-14.4,19c-1.2,8.4-1.8,12.7-2.9,21.5c1.3,0.4,2.6,0.8,3.9,1.1c0.4,0.1,0.8,0.2,1.2,0.3
			c0.9,0.2,1.9,0.5,2.8,0.6c0.2,0.1,0.5,0.1,0.7,0.2c0.2,0,0.3,0.1,0.5,0.1c1.2,0.2,2.4,0.4,3.6,0.6c0.1,0,0.3,0.1,0.4,0.1
			c1.3,0.2,2.6,0.3,4,0.5c0.4,0,0.7,0.1,1.1,0.1c1,0.1,2,0.1,3,0.2c0.4,0,0.8,0,1.2,0c1.3,0,2.6,0.1,3.9,0c2.2,0,4.3-0.2,6.4-0.4
			c1.2-0.1,2.9-0.5,4.3-0.6l14.4-19C140.8,71.5,139.1,71.8,137.9,72z"/>
	</g>
	
		<linearGradient id="SVGID_00000158007072917519476860000000793509668769213620_" gradientUnits="userSpaceOnUse" x1="238.6518" y1="110.3421" x2="363.2987" y2="110.3421" gradientTransform="matrix(0.9127 0.4085 0.4085 -0.9127 -143.9941 55.5743)">
		<stop  offset="0.1374" style="stop-color:#171717"/>
		<stop  offset="0.4066" style="stop-color:#737373"/>
		<stop  offset="0.4083" style="stop-color:#737373"/>
		<stop  offset="0.4907" style="stop-color:#838383"/>
		<stop  offset="0.5549" style="stop-color:#898988"/>
		<stop  offset="1" style="stop-color:#1D1D1B"/>
	</linearGradient>
	<path style="fill:url(#SVGID_00000158007072917519476860000000793509668769213620_);" d="M109.8,79.7l129.8-18.2
		c3.6-0.5,6.7,0.8,7.4,4.4l0.4,2.1c0.6,3.6-1.9,5.8-5.5,6.3L112.4,94.8c-3.5,0.5-6.9-1.9-7.5-5.5l-0.4-2.1
		C103.9,83.6,106.3,80.3,109.8,79.7z"/>
	
		<linearGradient id="SVGID_00000059274632111422734670000016568884917283238319_" gradientUnits="userSpaceOnUse" x1="227.3311" y1="106.6663" x2="327.621" y2="76.0046" gradientTransform="matrix(0.9303 0.3668 0.3668 -0.9303 -121.9996 68.034)">
		<stop  offset="0" style="stop-color:#999999"/>
		<stop  offset="9.890110e-02" style="stop-color:#474747"/>
		<stop  offset="0.2363" style="stop-color:#A8A8A8"/>
		<stop  offset="0.3059" style="stop-color:#AAAAAA"/>
		<stop  offset="0.7363" style="stop-color:#B0B0B0"/>
		<stop  offset="0.9176" style="stop-color:#696969"/>
	</linearGradient>
	<path style="fill:url(#SVGID_00000059274632111422734670000016568884917283238319_);" d="M245.8,72.6l-0.1,0.1
		c-0.1,0.1-0.2,0.2-0.3,0.2l-0.1,0.1c-0.1,0.1-0.2,0.1-0.3,0.2c-0.1,0-0.1,0.1-0.2,0.1c-0.1,0.1-0.3,0.1-0.4,0.2h-0.1
		c-0.2,0.1-0.3,0.2-0.5,0.2c0,0-0.1,0-0.1,0.1c-0.1,0-0.3,0.1-0.4,0.1c-0.1,0-0.1,0-0.2,0.1c-0.1,0-0.3,0.1-0.4,0.1
		c-0.1,0-0.1,0-0.2,0c-0.2,0-0.4,0.1-0.6,0.1L112.4,94.8c-3.5,0.5-6.9-1.9-7.5-5.5l-0.4-2.1c-0.4-2.1,0.3-4,1.6-5.4
		c-2.7,3-5.5,6-8.2,9c-1.3,1.4-1.9,3.4-1.6,5.4l0.4,2.1c0.6,3.6,4,6,7.5,5.5l133.2-23.6c0.2,0,0.4-0.1,0.6-0.1c0.1,0,0.1,0,0.2,0
		c0.1,0,0.3-0.1,0.4-0.1c0.1,0,0.1,0,0.2-0.1c0.1,0,0.3-0.1,0.4-0.1c0.1,0,0.1,0,0.2-0.1c0.2-0.1,0.4-0.1,0.5-0.2c0,0,0.1,0,0.1-0.1
		c0.1-0.1,0.3-0.1,0.4-0.2c0.1,0,0.1-0.1,0.2-0.1c0.1-0.1,0.2-0.1,0.3-0.2l0.1-0.1c0,0,0.1,0,0.1-0.1c0.1-0.1,0.1-0.1,0.2-0.2
		l0.1-0.1c0.1-0.1,0.3-0.2,0.4-0.4c2.7-3,1.7-2.9,4.4-5.8C246.1,72.4,246,72.5,245.8,72.6z"/>
	<g>
		<g>
			<path class="st41" d="M111.5,86.5c-0.2-0.1-0.6-0.1-0.8-0.1c-0.2,0-0.5,0.2-0.5,0.4c0,0.3,0.5,0.3,0.7,0.3c0.7,0,1.2,0.3,1.2,1.2
				c0,1.2-1,1.9-2,2c-0.6,0.1-1.2,0-1.7-0.3c0.2-0.5,0.3-0.7,0.5-1.2c0.3,0.2,0.8,0.3,1.2,0.3c0.2,0,0.5-0.2,0.5-0.4
				c0-0.4-0.5-0.3-0.9-0.4c-0.5-0.1-1-0.2-1-1.1c0-1.1,0.9-1.8,1.9-1.9c0.5-0.1,1-0.1,1.4,0.1C111.8,85.8,111.7,86,111.5,86.5z"/>
			<path class="st41" d="M117.3,86.9c-1.3,0.2-1.9,0.3-3.2,0.5c0,0.7,0.3,1,0.9,0.9c0.3,0,0.6-0.2,0.7-0.5c0.6-0.1,0.9-0.1,1.5-0.2
				c-0.2,1.1-1.2,1.7-2.2,1.9c-1.4,0.2-2.5-0.5-2.5-2s1-2.6,2.4-2.8C116.4,84.5,117.2,85.3,117.3,86.9
				C117.3,86.8,117.3,86.9,117.3,86.9z M115.9,86.2c-0.1-0.4-0.5-0.6-0.9-0.6c-0.4,0.1-0.8,0.4-0.9,0.9
				C114.8,86.4,115.2,86.3,115.9,86.2z"/>
			<path class="st41" d="M119.5,84.8L119.5,84.8c0.3-0.6,0.8-0.9,1.4-1c0.1,0,0.2,0,0.3,0c0,0.6,0,0.9,0,1.5
				c-0.2-0.1-0.4-0.1-0.6-0.1c-0.8,0.1-1,0.8-1,1.5s0,1.1,0,1.8c-0.6,0.1-0.9,0.1-1.5,0.2c0-1.8,0-2.7,0-4.5
				c0.6-0.1,0.9-0.1,1.5-0.2C119.5,84.4,119.5,84.5,119.5,84.8z"/>
			<path class="st41" d="M124.2,85.7c0.4-1,0.6-1.5,1-2.5c0.7-0.1,1-0.2,1.7-0.3c-0.9,1.9-1.3,2.9-2.2,4.8c-0.4,0.1-0.6,0.1-1,0.2
				c-0.9-1.7-1.3-2.5-2.2-4.2c0.7-0.1,1-0.2,1.7-0.3C123.6,84.4,123.8,84.8,124.2,85.7z"/>
			<path class="st41" d="M128.8,87.1c-0.6,0.1-0.9,0.1-1.5,0.2c0-1.8,0-2.7,0-4.5c0.6-0.1,0.9-0.1,1.5-0.2
				C128.8,84.5,128.8,85.3,128.8,87.1z M128.9,80.9c0,0.5-0.4,1-0.8,1c-0.5,0.1-0.9-0.3-0.9-0.8s0.4-1,0.8-1
				C128.5,80.1,128.9,80.4,128.9,80.9z"/>
			<path class="st41" d="M132.9,83.5c-0.2-0.1-0.5-0.2-0.8-0.2c-0.6,0.1-1,0.6-1,1.2s0.4,1,1.1,0.9c0.3,0,0.6-0.2,0.8-0.4
				c0,0.5,0,0.8,0,1.3c-0.3,0.2-0.7,0.4-1.1,0.4c-1.3,0.2-2.3-0.6-2.3-2s1.1-2.6,2.4-2.8c0.3-0.1,0.7,0,1,0.1
				C132.9,82.7,132.9,82.9,132.9,83.5z"/>
			<path class="st41" d="M135.3,86.1c-0.6,0.1-0.9,0.1-1.5,0.2c0-1.8,0-2.7,0-4.5c0.6-0.1,0.9-0.1,1.5-0.2
				C135.3,83.4,135.3,84.3,135.3,86.1z M135.4,79.9c0,0.5-0.4,1-0.8,1c-0.5,0.1-0.8-0.3-0.9-0.8c0-0.5,0.4-1,0.8-1
				C135.1,79.1,135.4,79.4,135.4,79.9z"/>
			<path class="st41" d="M141.2,83c0,1.5-1.2,2.5-2.6,2.8c-1.4,0.2-2.6-0.4-2.6-2c0-1.5,1.2-2.6,2.6-2.8
				C140,80.8,141.2,81.5,141.2,83z M137.6,83.5c0,0.6,0.4,0.9,1,0.8s1-0.6,1-1.1s-0.4-0.9-1-0.8S137.6,83,137.6,83.5z"/>
			<path class="st41" d="M144.7,81.4c-0.2-0.1-0.6-0.1-0.8-0.1s-0.5,0.1-0.5,0.4s0.5,0.3,0.7,0.3c0.7,0,1.2,0.3,1.2,1.1
				c0,1.1-1,1.8-2,2c-0.6,0.1-1.2,0-1.7-0.2c0.2-0.5,0.3-0.7,0.6-1.2c0.3,0.2,0.8,0.3,1.2,0.3c0.2,0,0.5-0.2,0.5-0.4
				c0-0.3-0.5-0.3-0.9-0.3c-0.5-0.1-0.9-0.2-0.9-1c0-1.1,1-1.7,1.9-1.8c0.5-0.1,1-0.1,1.4,0.1C145,80.7,144.9,80.9,144.7,81.4z"/>
			<path class="st41" d="M152.2,82.9L152.2,82.9c-0.3,0.5-0.8,0.8-1.3,0.8c-1.3,0.2-2.2-0.7-2.1-2c0-1.2,0.9-2.4,2.2-2.6
				c0.5-0.1,1,0,1.3,0.4c0-1.2,0-1.9,0-3.2c0.6-0.1,0.9-0.1,1.5-0.2c0,3,0,4.2,0,7.1c-0.6,0.1-0.9,0.1-1.5,0.2
				C152.2,83.2,152.2,83.1,152.2,82.9z M150.3,81.6c0,0.5,0.4,0.9,1,0.8s1-0.6,1-1.1s-0.4-0.9-1-0.8C150.7,80.5,150.3,81,150.3,81.6
				z"/>
			<path class="st41" d="M156.2,82.8c-0.6,0.1-0.9,0.1-1.5,0.2c0-1.8,0-2.6,0-4.3c0.6-0.1,0.9-0.1,1.5-0.2
				C156.2,80.2,156.2,81,156.2,82.8z M156.3,76.8c0,0.5-0.4,0.9-0.9,1s-0.8-0.3-0.8-0.8s0.4-1,0.8-1C155.9,76,156.3,76.3,156.3,76.8
				z"/>
			<path class="st41" d="M161.8,81.5c0,1.8-0.9,2.8-2.5,3c-1,0.2-2.3-0.2-2.4-1.3c0.7-0.1,1-0.2,1.7-0.3c0,0.1,0.1,0.2,0.3,0.3
				c0.1,0,0.3,0.1,0.4,0c0.8-0.1,1-0.7,1-1.4c0-0.1,0-0.1,0-0.2c-0.4,0.5-0.8,0.7-1.4,0.8c-1.2,0.2-2.1-0.6-2.1-1.9
				c0-1.2,0.9-2.4,2.2-2.6c0.5-0.1,1,0,1.3,0.4l0,0c0-0.2,0-0.3,0-0.4c0.6-0.1,0.9-0.1,1.5-0.2C161.9,79.2,161.9,79.9,161.8,81.5z
				 M158.4,80.3c0,0.5,0.3,0.9,1,0.8c0.6-0.1,1-0.6,1-1.1s-0.3-0.9-1-0.8C158.8,79.2,158.4,79.7,158.4,80.3z"/>
			<path class="st41" d="M164.3,81.5c-0.6,0.1-0.9,0.1-1.5,0.2c0-1.7,0-2.5,0-4.2c0.6-0.1,0.9-0.1,1.5-0.2
				C164.3,79,164.3,79.8,164.3,81.5z M164.4,75.6c0,0.5-0.4,0.9-0.9,1s-0.8-0.3-0.8-0.7c0-0.5,0.4-0.9,0.8-1
				C164.1,74.8,164.4,75.1,164.4,75.6z"/>
			<path class="st41" d="M167,81.1c-0.6,0.1-0.9,0.1-1.5,0.2c0-1.2,0-1.8,0-3c-0.2,0-0.3,0-0.5,0.1c0-0.5,0-0.7,0-1.2
				c0.2,0,0.3,0,0.5-0.1c0-0.5,0-0.8,0-1.3c0.6-0.1,0.9-0.1,1.5-0.2c0,0.5,0,0.8,0,1.3c0.3-0.1,0.5-0.1,0.9-0.1c0,0.5,0,0.7,0,1.2
				c-0.3,0.1-0.5,0.1-0.9,0.1C167,79.3,167,79.8,167,81.1z"/>
			<path class="st41" d="M173,80.1c-0.6,0.1-0.9,0.1-1.5,0.2c0-0.2,0-0.3,0-0.5l0,0c-0.3,0.5-0.8,0.7-1.3,0.8
				c-1.3,0.2-2.1-0.7-2.1-1.9c0-1.2,0.9-2.4,2.2-2.5c0.5-0.1,1,0,1.3,0.3c0-0.2,0-0.2,0-0.4c0.6-0.1,0.9-0.1,1.5-0.2
				C173,77.6,173,78.4,173,80.1z M169.6,78.6c0,0.5,0.3,0.9,1,0.8c0.6-0.1,1-0.6,1-1.1s-0.3-0.9-1-0.8S169.6,78,169.6,78.6z"/>
			<path class="st41" d="M175.5,79.7c-0.6,0.1-0.9,0.1-1.5,0.2c0-2.7,0.1-3.9,0.1-6.8c0.6-0.1,0.9-0.1,1.5-0.2
				C175.6,75.8,175.5,77,175.5,79.7z"/>
			<path class="st41" d="M180.9,77c-1.3,0.2-1.9,0.3-3.2,0.5c0,0.6,0.3,0.9,0.9,0.8c0.3-0.1,0.6-0.2,0.7-0.5
				c0.6-0.1,0.9-0.1,1.5-0.2c-0.3,1-1.2,1.6-2.2,1.8c-1.4,0.2-2.5-0.4-2.4-1.8c0-1.4,1-2.3,2.4-2.5C180.1,74.9,180.9,75.6,180.9,77
				C180.9,76.9,180.9,77,180.9,77z M179.5,76.4c-0.1-0.4-0.4-0.6-0.8-0.5c-0.4,0.1-0.8,0.3-0.9,0.8
				C178.4,76.6,178.8,76.5,179.5,76.4z"/>
			<path class="st41" d="M184.4,75.3c-0.2-0.1-0.6-0.1-0.8-0.1s-0.5,0.1-0.5,0.3c0,0.3,0.5,0.2,0.7,0.2c0.7,0,1.2,0.3,1.2,1
				c0,1.1-1,1.7-2,1.8c-0.6,0.1-1.2,0-1.7-0.2c0.2-0.4,0.3-0.7,0.6-1.1c0.3,0.2,0.8,0.3,1.2,0.2c0.2,0,0.5-0.2,0.5-0.4
				c0-0.3-0.5-0.3-0.9-0.3c-0.5,0-0.9-0.2-0.9-0.9c0-1,1-1.6,1.9-1.7c0.5-0.1,1-0.1,1.4,0C184.7,74.7,184.6,74.9,184.4,75.3z"/>
			<path class="st41" d="M193.1,75.1c-1.3,0.2-1.9,0.3-3.2,0.5c0,0.6,0.3,0.8,0.9,0.7c0.3-0.1,0.6-0.2,0.7-0.5
				c0.6-0.1,0.9-0.1,1.5-0.2c-0.3,1-1.2,1.6-2.2,1.7c-1.4,0.2-2.5-0.4-2.4-1.8c0-1.3,1-2.3,2.4-2.5c1.5-0.2,2.3,0.5,2.3,1.8
				C193.1,75,193.1,75.1,193.1,75.1z M191.7,74.5c-0.1-0.4-0.4-0.6-0.8-0.5c-0.4,0.1-0.8,0.3-0.9,0.8
				C190.6,74.7,191,74.6,191.7,74.5z"/>
			<path class="st41" d="M195.3,73.1L195.3,73.1c0.4-0.5,0.8-0.8,1.4-0.9c1.2-0.2,1.6,0.4,1.6,1.4s0,1.4-0.1,2.4
				c-0.6,0.1-0.9,0.1-1.5,0.2c0-0.8,0-1.2,0-1.9c0-0.4,0.1-1-0.7-0.9c-0.6,0.1-0.8,0.5-0.8,1c0,0.8,0,1.2,0,2.1
				c-0.6,0.1-0.9,0.1-1.5,0.2c0-1.6,0.1-2.4,0.1-4c0.6-0.1,0.9-0.1,1.5-0.2C195.3,72.8,195.3,72.9,195.3,73.1z"/>
			<path class="st41" d="M203.6,75.2c-0.6,0.1-0.9,0.1-1.5,0.2c0-1.6,0.1-2.3,0.1-3.9c0.6-0.1,0.9-0.1,1.5-0.2
				C203.7,72.9,203.6,73.6,203.6,75.2z M203.8,69.7c0,0.5-0.4,0.9-0.9,1s-0.8-0.2-0.8-0.7s0.4-0.9,0.9-1
				C203.5,68.9,203.8,69.3,203.8,69.7z"/>
			<path class="st41" d="M206.2,71.4L206.2,71.4c0.4-0.5,0.8-0.7,1.4-0.8c0.6-0.1,1.4,0.5,1.4,0.5c0.1,0,0.9-0.9,1.5-1
				c1.1-0.2,1.4,0.4,1.4,1.3c0,1,0,1.4-0.1,2.4c-0.6,0.1-0.9,0.1-1.5,0.2c0-0.8,0-1.1,0-1.8c0-0.4,0-1-0.6-0.9
				c-0.7,0.1-0.7,0.7-0.8,1.1c0,0.7,0,1.1,0,1.8c-0.6,0.1-0.9,0.1-1.5,0.2c0-0.8,0-1.1,0-1.9c0-0.4,0-1.1-0.6-1
				c-0.7,0.1-0.7,0.7-0.7,1.2c0,0.7,0,1.1,0,1.9c-0.6,0.1-0.9,0.1-1.5,0.2c0-1.6,0.1-2.3,0.1-3.9c0.6-0.1,0.9-0.1,1.5-0.2
				C206.2,71.1,206.2,71.2,206.2,71.4z"/>
			<path class="st41" d="M214.4,70.1L214.4,70.1c0.3-0.4,0.8-0.7,1.3-0.8c1.3-0.2,2.1,0.6,2.1,1.7s-0.9,2.2-2.2,2.4
				c-0.5,0.1-1,0-1.3-0.3c0,0.9,0,1.4,0,2.5c-0.6,0.1-0.9,0.1-1.5,0.2c0-2.7,0.1-3.6,0.1-5.9c0.6-0.1,0.9-0.1,1.5-0.2
				C214.4,69.9,214.4,69.9,214.4,70.1z M214.3,71.6c0,0.5,0.3,0.8,0.9,0.7c0.6-0.1,1-0.5,1-1s-0.3-0.8-0.9-0.7
				C214.7,70.7,214.3,71.1,214.3,71.6z"/>
			<path class="st41" d="M220.1,69.4L220.1,69.4c0.3-0.5,0.8-0.8,1.4-0.9c0.1,0,0.2,0,0.3,0c0,0.5,0,0.8,0,1.3
				c-0.2-0.1-0.4-0.1-0.6,0c-0.8,0.1-1.1,0.6-1.1,1.3c0,0.6,0,0.9,0,1.5c-0.6,0.1-0.9,0.1-1.5,0.2c0-1.6,0.1-2.2,0.1-3.8
				c0.6-0.1,0.9-0.1,1.5-0.2C220.1,69.1,220.1,69.2,220.1,69.4z"/>
			<path class="st41" d="M226.7,69.9c-1.3,0.2-1.9,0.3-3.2,0.5c0,0.5,0.3,0.8,0.9,0.7c0.3-0.1,0.6-0.2,0.7-0.5
				c0.6-0.1,0.9-0.1,1.5-0.2c-0.3,0.9-1.2,1.5-2.2,1.6c-1.4,0.2-2.5-0.3-2.4-1.6c0-1.2,1-2.1,2.4-2.4c1.5-0.2,2.3,0.5,2.3,1.7
				C226.7,69.8,226.7,69.8,226.7,69.9z M225.3,69.3c-0.1-0.3-0.4-0.5-0.8-0.5c-0.4,0.1-0.8,0.3-0.9,0.7
				C224.3,69.5,224.6,69.4,225.3,69.3z"/>
			<path class="st41" d="M230.3,68.2c-0.2-0.1-0.6-0.1-0.8-0.1s-0.5,0.1-0.5,0.3c0,0.3,0.5,0.2,0.7,0.2c0.7,0,1.2,0.2,1.2,0.9
				c0,1-1.1,1.6-2.1,1.7c-0.6,0.1-1.2,0-1.7-0.2c0.2-0.4,0.3-0.6,0.6-1c0.3,0.1,0.8,0.2,1.2,0.2c0.2,0,0.5-0.2,0.5-0.4
				c0-0.3-0.5-0.2-0.9-0.3c-0.5,0-0.9-0.2-0.9-0.8c0-0.9,1-1.5,1.9-1.6c0.5-0.1,1-0.1,1.4,0C230.6,67.7,230.5,67.9,230.3,68.2z"/>
			<path class="st41" d="M233.1,70.5c-0.6,0.1-0.9,0.1-1.5,0.2c0-1.6,0.1-2.2,0.1-3.7c0.6-0.1,0.9-0.1,1.5-0.2
				C233.2,68.3,233.2,69,233.1,70.5z M233.4,65.3c0,0.5-0.4,0.9-0.9,0.9c-0.5,0.1-0.8-0.2-0.8-0.7s0.4-0.9,0.9-1
				C233,64.5,233.4,64.8,233.4,65.3z"/>
			<path class="st41" d="M239,67.8c0,1.2-1.3,2.2-2.6,2.4c-1.4,0.2-2.6-0.3-2.5-1.6c0-1.2,1.3-2.1,2.6-2.4
				C237.9,66,239.1,66.5,239,67.8z M235.5,68.3c0,0.5,0.3,0.8,0.9,0.7c0.6-0.1,1-0.5,1-1c0-0.4-0.3-0.8-0.9-0.7
				C235.9,67.4,235.5,67.9,235.5,68.3z M236.2,65.8c-0.3-0.1-0.4-0.2-0.7-0.4c0.5-0.6,0.7-0.9,1.2-1.6c0.4,0.2,0.6,0.3,0.9,0.5
				C237,65,236.7,65.3,236.2,65.8z"/>
			<path class="st41" d="M241.3,66.1L241.3,66.1c0.4-0.5,0.8-0.7,1.4-0.8c1.2-0.2,1.6,0.4,1.6,1.3s-0.1,1.3-0.1,2.3
				c-0.6,0.1-0.9,0.1-1.5,0.2c0-0.8,0-1.1,0.1-1.8c0-0.3,0.1-1-0.6-0.8c-0.6,0.1-0.8,0.5-0.8,1c0,0.7,0,1.1-0.1,1.9
				c-0.6,0.1-0.9,0.1-1.5,0.2c0-1.5,0.1-2.2,0.1-3.7c0.6-0.1,0.9-0.1,1.5-0.2C241.3,65.8,241.3,65.9,241.3,66.1z"/>
		</g>
	</g>
</g>
</svg>
