<?xml version="1.0" encoding="utf-8"?>
<!-- Generator: Adobe Illustrator 26.2.1, SVG Export Plug-In . SVG Version: 6.00 Build 0)  -->
<svg version="1.1" id="Layer_1" xmlns="http://www.w3.org/2000/svg" xmlns:xlink="http://www.w3.org/1999/xlink" x="0px" y="0px"
	 viewBox="0 0 80.9 104.6" style="enable-background:new 0 0 80.9 104.6;" xml:space="preserve">
<style type="text/css">
	.st0{fill:#DD0079;}
	.st1{enable-background:new    ;}
	.st2{fill:url(#SVGID_00000098194918064557586750000007549053354864016791_);}
	
		.st3{clip-path:url(#SVGID_00000016772612039720627510000013578655973595763382_);fill:url(#SVGID_00000037651605912893729550000010541960910237745288_);}
	.st4{fill:url(#SVGID_00000047760466351145783550000017847928174989633446_);}
	
		.st5{clip-path:url(#SVGID_00000163044624292827720140000005181998856761720255_);fill:url(#SVGID_00000152222849082265138570000002578097405363058068_);}
	.st6{fill:url(#SVGID_00000179643328507500457940000014975688352227560366_);}
	
		.st7{clip-path:url(#SVGID_00000170271612906359083700000009956678600063589286_);fill:url(#SVGID_00000052818581635220294790000016129991688224409513_);}
	.st8{fill:#A3005A;}
	.st9{fill:url(#SVGID_00000162354496884806992670000005809654445638735520_);}
	.st10{fill:url(#SVGID_00000183933117642384436470000006693608769154749828_);}
	.st11{fill:url(#SVGID_00000044146339471245693720000000738652718300426126_);}
	.st12{fill:url(#SVGID_00000030467476936718223280000012114065860437490101_);}
	.st13{fill:url(#SVGID_00000101821213897385986660000006785757170767469757_);}
	
		.st14{clip-path:url(#SVGID_00000089534781892789804400000004015091353879588008_);fill:url(#SVGID_00000049179855652834530700000008702625453561254542_);}
	.st15{fill:url(#SVGID_00000068642503816095577960000013282771619037691048_);}
	
		.st16{clip-path:url(#SVGID_00000065033628494783902510000001289156254772776624_);fill:url(#SVGID_00000120533999916439537340000012861456400911044543_);}
	.st17{fill:url(#SVGID_00000145772703557091451170000013015219004942230915_);}
	.st18{fill:#8D004D;}
	.st19{fill:#006E99;}
	.st20{fill:url(#SVGID_00000098901687918655081900000013393342005588282026_);}
	.st21{fill:url(#SVGID_00000179622277881189122030000017178419811408424627_);}
	.st22{fill:#808080;}
	.st23{fill:url(#SVGID_00000155860337320785122890000016166819034424743829_);}
	.st24{fill:#0073A1;}
	.st25{fill:url(#SVGID_00000096025676908282335710000016373071824942438838_);}
	
		.st26{clip-path:url(#SVGID_00000026867860542087619870000013526796775641998770_);fill:url(#SVGID_00000095325353267340201600000015654455992119754127_);}
	.st27{fill:url(#SVGID_00000121971790757009113290000003046578526614125707_);}
	
		.st28{clip-path:url(#SVGID_00000054229733626872403910000016565744427794436481_);fill:url(#SVGID_00000145016161732064225650000010153301757620802709_);}
	.st29{fill:url(#SVGID_00000173134867478976794100000013599090013898743713_);}
	.st30{fill:url(#SVGID_00000141422418974146829390000010297429844881766317_);}
	.st31{fill:url(#SVGID_00000025409231268948456500000004232288450985149578_);}
	.st32{fill:url(#SVGID_00000055696469323401632730000014536150030559814298_);}
	.st33{fill:url(#SVGID_00000032623392802351665000000004582327233333016464_);}
	.st34{fill:url(#SVGID_00000049920439527785059070000016685931465634876304_);}
	.st35{fill:none;}
	.st36{fill:url(#SVGID_00000109751008508585489580000004885650399206421914_);}
	.st37{fill:url(#SVGID_00000095326897480772562020000004014010900670064519_);}
	.st38{fill:url(#SVGID_00000037693772585856616440000006251436702504491657_);}
	.st39{fill:url(#SVGID_00000142897665690348387400000008224160936263914373_);}
	.st40{fill:url(#SVGID_00000033344870153641311490000015519381992388633754_);}
	.st41{fill:#FFFFFF;}
</style>
<g>
	<g>
		<path class="st0" d="M50.5,32.7c7,0.5,14.1,1,21.1,1.5c0.2,0.9,0.4,1.3,0.6,2.1c-5.3-0.3-8-0.4-13.2-0.7c-1-0.5-2.1-0.9-3.3-1.3
			C53.6,33.7,52.6,33.4,50.5,32.7z"/>
		<g class="st1">
			<g>
				
					<linearGradient id="SVGID_00000008131988558471898140000014367316803407752382_" gradientUnits="userSpaceOnUse" x1="119.1373" y1="123.3812" x2="127.4817" y2="121.4548" gradientTransform="matrix(0.9127 0.4085 0.4085 -0.9127 -154.8193 106.2283)">
					<stop  offset="0" style="stop-color:#00668E"/>
					<stop  offset="0.1986" style="stop-color:#2087B0"/>
					<stop  offset="0.4129" style="stop-color:#3CA5CF"/>
					<stop  offset="0.5961" style="stop-color:#4DB7E1"/>
					<stop  offset="0.7253" style="stop-color:#53BDE8"/>
				</linearGradient>
				<path id="SVGID_1_" style="fill:url(#SVGID_00000008131988558471898140000014367316803407752382_);" d="M3.6,43.3l6.7-8.8
					c-1.4,1.9-1.9,4.3-1,7.5c0.5,1.8,1.4,3.3,2.7,4.5l-6.7,8.8C4,54,3.1,52.5,2.6,50.7C1.7,47.6,2.2,45.1,3.6,43.3z"/>
			</g>
			<g>
				<defs>
					<path id="SVGID_00000025421541957948493290000011277121111184861605_" d="M3.6,43.3l6.7-8.8c-1.4,1.9-1.9,4.3-1,7.5
						c0.5,1.8,1.4,3.3,2.7,4.5l-6.7,8.8C4,54,3.1,52.5,2.6,50.7C1.7,47.6,2.2,45.1,3.6,43.3z"/>
				</defs>
				<clipPath id="SVGID_00000074418740144988858500000007397535885853574532_">
					<use xlink:href="#SVGID_00000025421541957948493290000011277121111184861605_"  style="overflow:visible;"/>
				</clipPath>
				
					<linearGradient id="SVGID_00000080919160918746322820000003085586338807691415_" gradientUnits="userSpaceOnUse" x1="119.1449" y1="123.4174" x2="127.4893" y2="121.4909" gradientTransform="matrix(0.9127 0.4085 0.4085 -0.9127 -154.8193 106.2283)">
					<stop  offset="0" style="stop-color:#00668E"/>
					<stop  offset="0.1986" style="stop-color:#2087B0"/>
					<stop  offset="0.4129" style="stop-color:#3CA5CF"/>
					<stop  offset="0.5961" style="stop-color:#4DB7E1"/>
					<stop  offset="0.7253" style="stop-color:#53BDE8"/>
				</linearGradient>
				
					<path style="clip-path:url(#SVGID_00000074418740144988858500000007397535885853574532_);fill:url(#SVGID_00000080919160918746322820000003085586338807691415_);" d="
					M11.9,46.4l-6.7,8.8C4,54,3.1,52.5,2.6,50.7c-0.9-3.1-0.4-5.6,1-7.5l6.7-8.8c-1.4,1.9-1.9,4.3-1,7.5
					C9.8,43.7,10.7,45.2,11.9,46.4"/>
			</g>
		</g>
		<g>
			<g>
				
					<linearGradient id="SVGID_00000062191612815795392030000010392308487078897297_" gradientUnits="userSpaceOnUse" x1="165.9557" y1="150.5411" x2="176.7188" y2="148.0562" gradientTransform="matrix(0.9127 0.4085 0.4085 -0.9127 -154.8193 106.2283)">
					<stop  offset="0" style="stop-color:#B54879"/>
					<stop  offset="0.4835" style="stop-color:#8E004D"/>
					<stop  offset="0.7151" style="stop-color:#9C0056"/>
					<stop  offset="0.9176" style="stop-color:#A3005A"/>
				</linearGradient>
				
					<path id="SVGID_00000145764351661899787540000009132059405599833506_" style="fill:url(#SVGID_00000062191612815795392030000010392308487078897297_);" d="
					M72.2,36.4l-6,7.9c-5.3-0.3-8-0.4-13.3-0.7l6-7.9C64.2,35.9,66.9,36.1,72.2,36.4z"/>
			</g>
			<g>
				<defs>
					<path id="SVGID_00000085935506970200271770000008540116584690996646_" d="M72.2,36.4l-6,7.9c-5.3-0.3-8-0.4-13.3-0.7l6-7.9
						C64.2,35.9,66.9,36.1,72.2,36.4z"/>
				</defs>
				<clipPath id="SVGID_00000127759015948516904010000003854018547042425525_">
					<use xlink:href="#SVGID_00000085935506970200271770000008540116584690996646_"  style="overflow:visible;"/>
				</clipPath>
				
					<linearGradient id="SVGID_00000183214232362271944530000002609132348731259545_" gradientUnits="userSpaceOnUse" x1="165.9557" y1="150.5411" x2="176.7188" y2="148.0562" gradientTransform="matrix(0.9127 0.4085 0.4085 -0.9127 -154.8193 106.2283)">
					<stop  offset="0" style="stop-color:#B54879"/>
					<stop  offset="0.4835" style="stop-color:#8E004D"/>
					<stop  offset="0.7151" style="stop-color:#9C0056"/>
					<stop  offset="0.9176" style="stop-color:#A3005A"/>
				</linearGradient>
				
					<path style="clip-path:url(#SVGID_00000127759015948516904010000003854018547042425525_);fill:url(#SVGID_00000183214232362271944530000002609132348731259545_);" d="
					M72.2,36.4l-6,7.9c-5.3-0.3-8-0.4-13.3-0.7l6-7.9C64.2,35.9,66.9,36.1,72.2,36.4"/>
			</g>
		</g>
		<g>
			<g>
				
					<linearGradient id="SVGID_00000044137420538015277660000003729358610290063492_" gradientUnits="userSpaceOnUse" x1="156.5622" y1="147.5347" x2="164.8534" y2="145.6205" gradientTransform="matrix(0.9127 0.4085 0.4085 -0.9127 -154.8193 106.2283)">
					<stop  offset="0.1703" style="stop-color:#8E004D"/>
					<stop  offset="0.3724" style="stop-color:#A6095D"/>
					<stop  offset="0.5855" style="stop-color:#B81069"/>
					<stop  offset="0.7363" style="stop-color:#BF126D"/>
					<stop  offset="1" style="stop-color:#CA006F"/>
				</linearGradient>
				
					<path id="SVGID_00000041989772827611056750000013145338139714272898_" style="fill:url(#SVGID_00000044137420538015277660000003729358610290063492_);" d="
					M58.9,35.6L53,43.5c-1-0.5-2.1-0.9-3.2-1.3c-2.1-0.6-3.1-1-5.2-1.7l5.9-7.8c2.1,0.7,3.1,1,5.2,1.7
					C56.8,34.8,57.9,35.2,58.9,35.6z"/>
			</g>
			<g>
				<defs>
					<path id="SVGID_00000089533092134351131600000003210833970932001179_" d="M58.9,35.6L53,43.5c-1-0.5-2.1-0.9-3.2-1.3
						c-2.1-0.6-3.1-1-5.2-1.7l5.9-7.8c2.1,0.7,3.1,1,5.2,1.7C56.8,34.8,57.9,35.2,58.9,35.6z"/>
				</defs>
				<clipPath id="SVGID_00000031187346571414719590000016981945850644173456_">
					<use xlink:href="#SVGID_00000089533092134351131600000003210833970932001179_"  style="overflow:visible;"/>
				</clipPath>
				
					<linearGradient id="SVGID_00000117660190366202085180000009213992340390944703_" gradientUnits="userSpaceOnUse" x1="156.5622" y1="147.5347" x2="164.8534" y2="145.6205" gradientTransform="matrix(0.9127 0.4085 0.4085 -0.9127 -154.8193 106.2283)">
					<stop  offset="0.1703" style="stop-color:#8E004D"/>
					<stop  offset="0.3724" style="stop-color:#A6095D"/>
					<stop  offset="0.5855" style="stop-color:#B81069"/>
					<stop  offset="0.7363" style="stop-color:#BF126D"/>
					<stop  offset="1" style="stop-color:#CA006F"/>
				</linearGradient>
				
					<path style="clip-path:url(#SVGID_00000031187346571414719590000016981945850644173456_);fill:url(#SVGID_00000117660190366202085180000009213992340390944703_);" d="
					M58.9,35.6L53,43.5c-1-0.5-2.1-0.9-3.2-1.3c-2.1-0.6-3.1-1-5.2-1.7l5.9-7.8c2.1,0.7,3.1,1,5.2,1.7
					C56.8,34.8,57.9,35.2,58.9,35.6"/>
			</g>
		</g>
		<polygon class="st8" points="74.4,45 68.4,52.9 61.9,53 67.9,45.1 		"/>
		
			<linearGradient id="SVGID_00000083078963726789536510000001334101621287350460_" gradientUnits="userSpaceOnUse" x1="178.2001" y1="147.6397" x2="176.7869" y2="150.6703" gradientTransform="matrix(0.9127 0.4085 0.4085 -0.9127 -154.8193 106.2283)">
			<stop  offset="0.1648" style="stop-color:#F2A0C5"/>
			<stop  offset="0.5958" style="stop-color:#ED71AA"/>
			<stop  offset="1" style="stop-color:#E8418F"/>
		</linearGradient>
		<path style="fill:url(#SVGID_00000083078963726789536510000001334101621287350460_);" d="M61.8,38.4c4.3,0.2,6.5,0.3,10.7,0.5
			c0.7,2.5,1.2,3.9,1.8,6.1l-6.5,0.1C66.7,42.3,64.6,40.1,61.8,38.4z"/>
		
			<linearGradient id="SVGID_00000150802481025650405110000003929644173621181318_" gradientUnits="userSpaceOnUse" x1="181.2038" y1="148.651" x2="186.7718" y2="139.7403" gradientTransform="matrix(0.9127 0.4085 0.4085 -0.9127 -154.8193 106.2283)">
			<stop  offset="0" style="stop-color:#737373"/>
			<stop  offset="2.369857e-02" style="stop-color:#707070"/>
			<stop  offset="0.3099" style="stop-color:#4C4C4B"/>
			<stop  offset="0.5768" style="stop-color:#323231"/>
			<stop  offset="0.8149" style="stop-color:#222221"/>
			<stop  offset="1" style="stop-color:#1D1D1B"/>
		</linearGradient>
		<path style="fill:url(#SVGID_00000150802481025650405110000003929644173621181318_);" d="M74.4,45c0.1,0.4,0.2,0.7,0.3,1.1
			c1.3,4,1.8,6.1,3,10c-2.8,0.3-4.2,0.5-6.9,0.7c-1.3-1.8-2-2.7-3.3-4.5c1.1-1.8,1.5-3.8,0.8-6.2c-0.1-0.4-0.3-0.8-0.4-1.2L74.4,45z
			"/>
		
			<linearGradient id="SVGID_00000007419373147987161690000008679509188934035869_" gradientUnits="userSpaceOnUse" x1="168.7146" y1="144.7594" x2="177.3996" y2="142.7543" gradientTransform="matrix(0.9127 0.4085 0.4085 -0.9127 -154.8193 106.2283)">
			<stop  offset="3.846150e-02" style="stop-color:#8E004D"/>
			<stop  offset="0.164" style="stop-color:#A6095D"/>
			<stop  offset="0.2964" style="stop-color:#B81069"/>
			<stop  offset="0.3901" style="stop-color:#BF126D"/>
			<stop  offset="0.7088" style="stop-color:#CA006F"/>
		</linearGradient>
		<path style="fill:url(#SVGID_00000007419373147987161690000008679509188934035869_);" d="M57.9,47.8c0.3,0.2,0.5,0.4,0.8,0.6
			c0,0,0.1,0.1,0.1,0.1c0.2,0.2,0.4,0.4,0.6,0.6c0,0.1,0.1,0.1,0.2,0.2c0.2,0.2,0.4,0.4,0.6,0.6c0,0,0.1,0.1,0.1,0.1
			c0.2,0.3,0.4,0.6,0.6,0.8c0,0.1,0.1,0.1,0.1,0.2c0.1,0.2,0.3,0.5,0.4,0.6c0,0.1,0.1,0.2,0.1,0.3c0.1,0.3,0.3,0.6,0.4,0.9l6-7.9
			c-0.1-0.3-0.3-0.6-0.4-0.9c0-0.1-0.1-0.2-0.1-0.3c-0.1-0.2-0.2-0.5-0.4-0.6c0-0.1-0.1-0.1-0.1-0.2c-0.2-0.3-0.4-0.6-0.6-0.8
			c0,0-0.1-0.1-0.1-0.1c-0.2-0.2-0.4-0.4-0.6-0.6c0-0.1-0.1-0.1-0.2-0.2c-0.2-0.2-0.4-0.4-0.6-0.6c0,0-0.1-0.1-0.1-0.1
			c-0.2-0.2-0.5-0.4-0.7-0.6c0,0,0,0-0.1,0c-0.2-0.2-0.4-0.3-0.6-0.5c-0.1-0.1-0.2-0.2-0.3-0.2c-0.3-0.2-0.7-0.5-1.1-0.7l-6,7.9
			c0.4,0.2,0.7,0.5,1.1,0.7c0.1,0.1,0.2,0.1,0.3,0.2C57.4,47.4,57.7,47.6,57.9,47.8z"/>
		
			<linearGradient id="SVGID_00000152968774656929597480000004841887785018589073_" gradientUnits="userSpaceOnUse" x1="176.3703" y1="139.0394" x2="180.6401" y2="137.9748" gradientTransform="matrix(0.9127 0.4085 0.4085 -0.9127 -154.8193 106.2283)">
			<stop  offset="0" style="stop-color:#474747"/>
			<stop  offset="0.9011" style="stop-color:#171717"/>
		</linearGradient>
		<path style="fill:url(#SVGID_00000152968774656929597480000004841887785018589073_);" d="M68.3,46.3c-0.1-0.4-0.3-0.7-0.4-1.2
			l-6,7.9c0.1,0.4,0.3,0.7,0.4,1.2c0.7,2.3,0.4,4.4-0.8,6.2l6-7.9C68.6,50.6,69,48.6,68.3,46.3z"/>
		<g>
			<g>
				
					<linearGradient id="SVGID_00000092456129015279040320000008527098508459210420_" gradientUnits="userSpaceOnUse" x1="185.2289" y1="134.7265" x2="190.1807" y2="133.5833" gradientTransform="matrix(0.9127 0.4085 0.4085 -0.9127 -154.8193 106.2283)">
					<stop  offset="0.2033" style="stop-color:#171717"/>
					<stop  offset="1" style="stop-color:#333333"/>
				</linearGradient>
				
					<path id="SVGID_00000102527833045955455790000002505099160097325708_" style="fill:url(#SVGID_00000092456129015279040320000008527098508459210420_);" d="
					M77.7,56.1l-6,7.9c-2.8,0.3-4.2,0.5-6.9,0.7l6-7.9C73.6,56.6,75,56.5,77.7,56.1z"/>
			</g>
			<g>
				<defs>
					<path id="SVGID_00000142889979574043467980000011275109464114753690_" d="M77.7,56.1l-6,7.9c-2.8,0.3-4.2,0.5-6.9,0.7l6-7.9
						C73.6,56.6,75,56.5,77.7,56.1z"/>
				</defs>
				<clipPath id="SVGID_00000052071849904391793500000007467850773195933596_">
					<use xlink:href="#SVGID_00000142889979574043467980000011275109464114753690_"  style="overflow:visible;"/>
				</clipPath>
				
					<linearGradient id="SVGID_00000081620452114511720350000010691342345481292434_" gradientUnits="userSpaceOnUse" x1="185.2289" y1="134.7265" x2="190.1807" y2="133.5833" gradientTransform="matrix(0.9127 0.4085 0.4085 -0.9127 -154.8193 106.2283)">
					<stop  offset="0.2033" style="stop-color:#171717"/>
					<stop  offset="1" style="stop-color:#333333"/>
				</linearGradient>
				
					<path style="clip-path:url(#SVGID_00000052071849904391793500000007467850773195933596_);fill:url(#SVGID_00000081620452114511720350000010691342345481292434_);" d="
					M77.7,56.1l-6,7.9c-2.8,0.3-4.2,0.5-6.9,0.7l6-7.9C73.6,56.6,75,56.5,77.7,56.1"/>
			</g>
		</g>
		<g>
			<g>
				
					<linearGradient id="SVGID_00000126310135571597285020000001314332755433290371_" gradientUnits="userSpaceOnUse" x1="179.498" y1="134.4809" x2="185.0323" y2="132.998" gradientTransform="matrix(0.9127 0.4085 0.4085 -0.9127 -154.8193 106.2283)">
					<stop  offset="0.1703" style="stop-color:#171717"/>
					<stop  offset="0.6043" style="stop-color:#272727"/>
					<stop  offset="0.9451" style="stop-color:#2E2E2E"/>
				</linearGradient>
				
					<path id="SVGID_00000147198732675388093540000001395489054467354013_" style="fill:url(#SVGID_00000126310135571597285020000001314332755433290371_);" d="
					M70.8,56.9l-6,7.9c-1.3-1.8-2-2.6-3.3-4.5l6-7.9C68.8,54.2,69.5,55.2,70.8,56.9z"/>
			</g>
			<g>
				<defs>
					<path id="SVGID_00000123428145070857872690000007222524555047010697_" d="M70.8,56.9l-6,7.9c-1.3-1.8-2-2.6-3.3-4.5l6-7.9
						C68.8,54.2,69.5,55.2,70.8,56.9z"/>
				</defs>
				<clipPath id="SVGID_00000140005146194488385920000018380519795438854282_">
					<use xlink:href="#SVGID_00000123428145070857872690000007222524555047010697_"  style="overflow:visible;"/>
				</clipPath>
				
					<linearGradient id="SVGID_00000178906241515284406820000017592714908476441741_" gradientUnits="userSpaceOnUse" x1="179.498" y1="134.4809" x2="185.0323" y2="132.998" gradientTransform="matrix(0.9127 0.4085 0.4085 -0.9127 -154.8193 106.2283)">
					<stop  offset="0.1703" style="stop-color:#171717"/>
					<stop  offset="0.6043" style="stop-color:#272727"/>
					<stop  offset="0.9451" style="stop-color:#2E2E2E"/>
				</linearGradient>
				
					<path style="clip-path:url(#SVGID_00000140005146194488385920000018380519795438854282_);fill:url(#SVGID_00000178906241515284406820000017592714908476441741_);" d="
					M70.8,56.9l-6,7.9c-1.3-1.8-2-2.6-3.3-4.5l6-7.9C68.8,54.2,69.5,55.2,70.8,56.9"/>
			</g>
		</g>
		<polygon class="st8" points="64.2,45.1 57.9,53.4 44.9,53.6 51.2,45.3 		"/>
		
			<linearGradient id="SVGID_00000075143833941500747260000014671084463539386263_" gradientUnits="userSpaceOnUse" x1="152.6913" y1="136.1434" x2="161.8449" y2="134.0301" gradientTransform="matrix(0.9127 0.4085 0.4085 -0.9127 -154.8193 106.2283)">
			<stop  offset="0.1703" style="stop-color:#8E004D"/>
			<stop  offset="0.4048" style="stop-color:#9C0056"/>
			<stop  offset="0.6099" style="stop-color:#A3005A"/>
			<stop  offset="1" style="stop-color:#CA006F"/>
		</linearGradient>
		<path style="fill:url(#SVGID_00000075143833941500747260000014671084463539386263_);" d="M39.1,49.7c0,0,0.1,0,0.2,0
			c0.2,0,0.4,0.1,0.6,0.1h0c0.2,0,0.4,0.1,0.6,0.2c0,0,0.1,0,0.2,0.1c0.1,0,0.3,0.1,0.4,0.1c0.1,0,0.1,0,0.2,0.1
			c0.1,0,0.2,0.1,0.4,0.1c0,0,0.1,0,0.2,0.1c0.2,0.1,0.4,0.2,0.6,0.4c0,0,0,0,0.1,0c0.2,0.1,0.4,0.2,0.5,0.4c0,0,0.1,0,0.1,0.1
			c0.1,0.1,0.3,0.3,0.5,0.4c0,0,0,0,0,0c0.1,0.1,0.2,0.3,0.4,0.4c0,0,0.1,0.1,0.1,0.1c0.1,0.1,0.2,0.2,0.3,0.4c0,0,0,0.1,0.1,0.1
			c0.1,0.2,0.2,0.4,0.3,0.6l6.3-8.3c-0.1-0.2-0.2-0.4-0.3-0.6c0,0,0-0.1-0.1-0.1c-0.1-0.1-0.2-0.2-0.3-0.4c0,0-0.1-0.1-0.1-0.1
			c-0.1-0.1-0.2-0.3-0.4-0.4l0,0c-0.1-0.1-0.3-0.3-0.5-0.4l0,0c0,0,0,0-0.1,0c-0.2-0.1-0.3-0.3-0.5-0.4c0,0,0,0-0.1,0
			c-0.2-0.1-0.4-0.2-0.6-0.4l0,0c0,0-0.1,0-0.1,0c-0.1,0-0.2-0.1-0.4-0.1c-0.1,0-0.1,0-0.2-0.1c-0.1,0-0.3-0.1-0.4-0.1
			c0,0-0.1,0-0.2,0c-0.2,0-0.4-0.1-0.6-0.2h0c-0.2,0-0.4-0.1-0.6-0.1h0c0,0-0.1,0-0.1,0c-0.2,0-0.5-0.1-0.6-0.1c0,0-0.1,0-0.2,0
			c-0.3,0-0.6-0.1-0.8-0.1c-0.4,0-0.7,0-1.1,0l-6.3,8.3c0.4,0,0.7,0,1.1,0c0.3,0,0.6,0,0.8,0.1c0.1,0,0.1,0,0.2,0
			C38.7,49.6,38.9,49.7,39.1,49.7z"/>
		<polygon class="st18" points="42.6,41.1 36.3,49.4 34,40.9 40.2,32.6 		"/>
		<path class="st19" d="M42.5,41.1c-0.3,0-0.5,0-0.8,0l-6.3,8.3c0.3,0,0.5,0,0.8,0c0,0,0.1,0,0.2,0l6.3-8.2
			C42.6,41.1,42.5,41.1,42.5,41.1z"/>
		
			<linearGradient id="SVGID_00000070837639010041991760000009520996377909536671_" gradientUnits="userSpaceOnUse" x1="161.6296" y1="133.0519" x2="164.1237" y2="132.4761" gradientTransform="matrix(0.9127 0.4085 0.4085 -0.9127 -154.8193 106.2283)">
			<stop  offset="0.1813" style="stop-color:#1C1C1C"/>
			<stop  offset="0.355" style="stop-color:#272727"/>
			<stop  offset="0.6619" style="stop-color:#454545"/>
			<stop  offset="0.8791" style="stop-color:#5E5E5E"/>
		</linearGradient>
		<path style="fill:url(#SVGID_00000070837639010041991760000009520996377909536671_);" d="M51.6,46.5c-0.1-0.4-0.3-0.8-0.4-1.2
			l-6.3,8.3c0.2,0.4,0.3,0.7,0.4,1.2c0.4,1.3,0.2,2.3-0.4,3.1l6.3-8.3C51.8,48.8,52,47.8,51.6,46.5z"/>
		
			<linearGradient id="SVGID_00000078007568683774109230000008026960788245854856_" gradientUnits="userSpaceOnUse" x1="166.415" y1="127.0059" x2="174.8926" y2="125.0487" gradientTransform="matrix(0.9127 0.4085 0.4085 -0.9127 -154.8193 106.2283)">
			<stop  offset="0.3242" style="stop-color:#696969"/>
			<stop  offset="0.4678" style="stop-color:#4D4D4D"/>
			<stop  offset="0.6457" style="stop-color:#313131"/>
			<stop  offset="0.8016" style="stop-color:#202020"/>
			<stop  offset="0.9176" style="stop-color:#1A1A1A"/>
		</linearGradient>
		<path style="fill:url(#SVGID_00000078007568683774109230000008026960788245854856_);" d="M55.8,63.3c0.1,0,0.1-0.1,0.2-0.2
			c0.1-0.1,0.3-0.2,0.4-0.4c0,0,0.1-0.1,0.2-0.2c0.2-0.2,0.3-0.4,0.5-0.6l6.3-8.3c-0.1,0.2-0.3,0.4-0.5,0.6c0,0-0.1,0.1-0.2,0.2
			c-0.1,0.1-0.2,0.3-0.4,0.4c-0.1,0.1-0.1,0.1-0.2,0.2c-0.1,0.1-0.2,0.2-0.4,0.3c-0.1,0-0.1,0.1-0.2,0.2c-0.1,0.1-0.3,0.2-0.5,0.3
			c0,0-0.1,0.1-0.2,0.1c-0.2,0.1-0.5,0.3-0.7,0.5c0,0-0.1,0-0.2,0.1c-0.2,0.1-0.4,0.2-0.6,0.3c-0.1,0-0.2,0.1-0.3,0.1
			c-0.2,0.1-0.3,0.2-0.5,0.3c-0.1,0-0.2,0.1-0.3,0.1c-0.2,0.1-0.4,0.2-0.6,0.3c0,0-0.1,0-0.2,0.1c-0.3,0.1-0.5,0.2-0.8,0.3
			c-0.1,0-0.1,0-0.2,0.1c-0.2,0.1-0.4,0.1-0.6,0.2c-0.1,0-0.2,0-0.3,0.1c-0.2,0-0.4,0.1-0.6,0.2c-0.1,0-0.2,0-0.3,0.1
			c-0.2,0-0.5,0.1-0.7,0.2c0,0-0.1,0-0.1,0c-0.3,0-0.6,0.1-0.8,0.2c-0.1,0-0.1,0-0.2,0c-0.2,0-0.4,0.1-0.6,0.1c-0.1,0-0.2,0-0.3,0
			c-0.2,0-0.4,0-0.6,0.1c-0.1,0-0.2,0-0.2,0c-0.3,0-0.6,0-0.8,0.1c-0.5,0-0.8,0.1-1.3,0.1c-0.5,0-0.9,0.1-1.4,0.1l-6.3,8.3
			c0.5,0,0.9-0.1,1.4-0.1c0.5,0,0.7-0.1,1.3-0.1c0.3,0,0.5,0,0.8-0.1c0.1,0,0.2,0,0.2,0c0.2,0,0.4,0,0.6-0.1c0.1,0,0.2,0,0.3,0
			c0.2,0,0.4-0.1,0.6-0.1c0.1,0,0.1,0,0.2,0c0.3,0,0.6-0.1,0.8-0.2c0,0,0,0,0.1,0c0.2,0,0.5-0.1,0.7-0.2c0.1,0,0.2,0,0.3-0.1
			c0.2,0,0.4-0.1,0.6-0.2c0.1,0,0.2,0,0.3-0.1c0.2-0.1,0.4-0.1,0.6-0.2c0,0,0.1,0,0.2-0.1c0.3-0.1,0.6-0.2,0.8-0.3
			c0,0,0.1,0,0.2-0.1c0.2-0.1,0.4-0.2,0.6-0.3c0.1,0,0.2-0.1,0.3-0.1c0.2-0.1,0.3-0.2,0.5-0.3c0.1,0,0.2-0.1,0.2-0.1
			c0.2-0.1,0.4-0.2,0.6-0.3c0,0,0.1,0,0.2-0.1c0.2-0.1,0.5-0.3,0.7-0.5c0,0,0.1-0.1,0.2-0.1c0.1-0.1,0.2-0.1,0.3-0.2
			c0,0,0.1,0,0.1-0.1c0.1,0,0.2-0.1,0.2-0.2C55.6,63.6,55.7,63.4,55.8,63.3z"/>
		<polygon class="st22" points="47.8,59.9 41.5,68.1 39.3,59.9 45.5,51.7 		"/>
		
			<linearGradient id="SVGID_00000122682019278441673000000013666602560412280195_" gradientUnits="userSpaceOnUse" x1="152.7409" y1="135.3182" x2="147.7009" y2="146.1266" gradientTransform="matrix(0.9127 0.4085 0.4085 -0.9127 -154.8193 106.2283)">
			<stop  offset="0" style="stop-color:#A0D9F7"/>
			<stop  offset="1" style="stop-color:#009EE2"/>
		</linearGradient>
		<path style="fill:url(#SVGID_00000122682019278441673000000013666602560412280195_);" d="M39.4,32.5c0.3,0,0.6,0,0.9,0.1l2.4,8.5
			c0,0-0.1,0-0.2,0c-0.3,0-0.5,0-0.8,0c0.5,1.8,0.8,2.9,1.3,4.4l-6,0.1C37.7,41.2,38.5,36.9,39.4,32.5z"/>
		<polygon class="st24" points="42.9,45.5 36.6,53.8 30.6,53.9 36.9,45.6 		"/>
		<g>
			<g>
				
					<linearGradient id="SVGID_00000030461117494842908950000006689050134319102875_" gradientUnits="userSpaceOnUse" x1="144.6376" y1="135.7291" x2="150.4194" y2="134.3943" gradientTransform="matrix(0.9127 0.4085 0.4085 -0.9127 -154.8193 106.2283)">
					<stop  offset="0" style="stop-color:#00668E"/>
					<stop  offset="0.2892" style="stop-color:#0085B3"/>
					<stop  offset="0.5786" style="stop-color:#009DD2"/>
					<stop  offset="0.8257" style="stop-color:#00ADE4"/>
					<stop  offset="1" style="stop-color:#00B2EB"/>
				</linearGradient>
				
					<path id="SVGID_00000132771700763217325930000009019107059481071775_" style="fill:url(#SVGID_00000030461117494842908950000006689050134319102875_);" d="
					M36.9,45.6l-6.3,8.3c0.8-4.4,1.6-8.8,2.5-13.1l6.3-8.3C38.5,36.9,37.7,41.2,36.9,45.6z"/>
			</g>
			<g>
				<defs>
					<path id="SVGID_00000107548338565759042630000004629621490470718599_" d="M36.9,45.6l-6.3,8.3c0.8-4.4,1.6-8.8,2.5-13.1
						l6.3-8.3C38.5,36.9,37.7,41.2,36.9,45.6z"/>
				</defs>
				<clipPath id="SVGID_00000179631256927691446120000002431916539224974477_">
					<use xlink:href="#SVGID_00000107548338565759042630000004629621490470718599_"  style="overflow:visible;"/>
				</clipPath>
				
					<linearGradient id="SVGID_00000106850197419527268280000011745216819219852673_" gradientUnits="userSpaceOnUse" x1="144.6376" y1="135.7291" x2="150.4194" y2="134.3943" gradientTransform="matrix(0.9127 0.4085 0.4085 -0.9127 -154.8193 106.2283)">
					<stop  offset="0" style="stop-color:#00668E"/>
					<stop  offset="0.2892" style="stop-color:#0085B3"/>
					<stop  offset="0.5786" style="stop-color:#009DD2"/>
					<stop  offset="0.8257" style="stop-color:#00ADE4"/>
					<stop  offset="1" style="stop-color:#00B2EB"/>
				</linearGradient>
				
					<path style="clip-path:url(#SVGID_00000179631256927691446120000002431916539224974477_);fill:url(#SVGID_00000106850197419527268280000011745216819219852673_);" d="
					M36.9,45.6l-6.3,8.3c0.8-4.4,1.6-8.8,2.5-13.1l6.3-8.3C38.5,36.9,37.7,41.2,36.9,45.6"/>
			</g>
		</g>
		<g>
			<g>
				
					<linearGradient id="SVGID_00000132049383254557652090000004534946822436342693_" gradientUnits="userSpaceOnUse" x1="153.7552" y1="117.6003" x2="164.342" y2="115.7336" gradientTransform="matrix(0.9127 0.4085 0.4085 -0.9127 -154.8193 106.2283)">
					<stop  offset="0" style="stop-color:#837A00"/>
					<stop  offset="0.3352" style="stop-color:#A09400"/>
					<stop  offset="0.8516" style="stop-color:#E5D343"/>
				</linearGradient>
				
					<path id="SVGID_00000122683311782897461650000006281208844461714872_" style="fill:url(#SVGID_00000132049383254557652090000004534946822436342693_);" d="
					M47.8,59.9l-6.3,8.3c-4.4,0.5-8.8,1-13.3,1.4l6.3-8.3C38.9,60.8,43.3,60.3,47.8,59.9z"/>
			</g>
			<g>
				<defs>
					<path id="SVGID_00000042003178484485804800000007835011615555371425_" d="M47.8,59.9l-6.3,8.3c-4.4,0.5-8.8,1-13.3,1.4l6.3-8.3
						C38.9,60.8,43.3,60.3,47.8,59.9z"/>
				</defs>
				<clipPath id="SVGID_00000130623193730061914860000015335344196022048395_">
					<use xlink:href="#SVGID_00000042003178484485804800000007835011615555371425_"  style="overflow:visible;"/>
				</clipPath>
				
					<linearGradient id="SVGID_00000134945287691395645460000010230949053292270241_" gradientUnits="userSpaceOnUse" x1="153.7552" y1="117.6003" x2="164.342" y2="115.7336" gradientTransform="matrix(0.9127 0.4085 0.4085 -0.9127 -154.8193 106.2283)">
					<stop  offset="0" style="stop-color:#837A00"/>
					<stop  offset="0.3352" style="stop-color:#A09400"/>
					<stop  offset="0.8516" style="stop-color:#E5D343"/>
				</linearGradient>
				
					<path style="clip-path:url(#SVGID_00000130623193730061914860000015335344196022048395_);fill:url(#SVGID_00000134945287691395645460000010230949053292270241_);" d="
					M47.8,59.9l-6.3,8.3c-4.4,0.5-8.8,1-13.3,1.4l6.3-8.3C38.9,60.8,43.3,60.3,47.8,59.9"/>
			</g>
		</g>
		
			<linearGradient id="SVGID_00000168116794675784547340000008996962809834753958_" gradientUnits="userSpaceOnUse" x1="147.5643" y1="121.5693" x2="154.7905" y2="120.2951" gradientTransform="matrix(0.9127 0.4085 0.4085 -0.9127 -154.8193 106.2283)">
			<stop  offset="2.747250e-02" style="stop-color:#736B00"/>
			<stop  offset="0.544" style="stop-color:#C7B700"/>
			<stop  offset="0.8516" style="stop-color:#D2C232"/>
		</linearGradient>
		<path style="fill:url(#SVGID_00000168116794675784547340000008996962809834753958_);" d="M36.7,46.8c0-0.4,0.1-0.7,0.2-1.2
			l-6.3,8.3c0,0.4-0.1,0.7-0.2,1.2c-0.8,4.8-1.5,9.6-2.2,14.5l6.3-8.3C35.2,56.4,35.9,51.6,36.7,46.8z"/>
		
			<linearGradient id="SVGID_00000070823670871398702910000000017873282842746527_" gradientUnits="userSpaceOnUse" x1="163.3321" y1="142.0504" x2="159.9498" y2="149.3037" gradientTransform="matrix(0.9127 0.4085 0.4085 -0.9127 -154.8193 106.2283)">
			<stop  offset="0" style="stop-color:#F19DC3"/>
			<stop  offset="6.486350e-02" style="stop-color:#EF88BA"/>
			<stop  offset="0.2118" style="stop-color:#EC5FA8"/>
			<stop  offset="0.3623" style="stop-color:#EA3D99"/>
			<stop  offset="0.5147" style="stop-color:#E8228D"/>
			<stop  offset="0.6699" style="stop-color:#E60F85"/>
			<stop  offset="0.8293" style="stop-color:#E50480"/>
			<stop  offset="1" style="stop-color:#E5007E"/>
		</linearGradient>
		<path style="fill:url(#SVGID_00000070823670871398702910000000017873282842746527_);" d="M40.2,32.6c0.3,0,0.7,0,1,0.1
			c7.8,0.8,19.5,3.8,22.9,12.4l-13,0.2c-1.3-2.5-3.9-3.8-7.5-4.2c-0.4,0-0.7,0-1.1,0L40.2,32.6z"/>
		
			<linearGradient id="SVGID_00000013900035732839194710000001382751996172251028_" gradientUnits="userSpaceOnUse" x1="154.691" y1="134.4195" x2="160.6061" y2="120.8576" gradientTransform="matrix(0.9127 0.4085 0.4085 -0.9127 -154.8193 106.2283)">
			<stop  offset="0" style="stop-color:#FFF49A"/>
			<stop  offset="9.090412e-02" style="stop-color:#FFF384"/>
			<stop  offset="0.3053" style="stop-color:#FFF055"/>
			<stop  offset="0.51" style="stop-color:#FFEE30"/>
			<stop  offset="0.6996" style="stop-color:#FFED16"/>
			<stop  offset="0.8686" style="stop-color:#FFEC06"/>
			<stop  offset="1" style="stop-color:#FFEC00"/>
		</linearGradient>
		<path style="fill:url(#SVGID_00000013900035732839194710000001382751996172251028_);" d="M42.9,45.5c0.1,0.4,0.2,0.7,0.3,1.2
			c0.6,2,0.9,3.1,1.5,5c0.3,0,0.5,0,0.8,0l2.3,8.1c-4.4,0.5-8.8,1-13.3,1.4c0.7-4.9,1.4-9.7,2.2-14.5c0-0.4,0.1-0.7,0.2-1.2
			L42.9,45.5z"/>
		
			<linearGradient id="SVGID_00000085212183345679255890000000999955039288797095_" gradientUnits="userSpaceOnUse" x1="166.5196" y1="140.857" x2="172.1905" y2="131.7817" gradientTransform="matrix(0.9127 0.4085 0.4085 -0.9127 -154.8193 106.2283)">
			<stop  offset="0" style="stop-color:#737373"/>
			<stop  offset="2.369857e-02" style="stop-color:#707070"/>
			<stop  offset="0.3099" style="stop-color:#4C4C4B"/>
			<stop  offset="0.5768" style="stop-color:#323231"/>
			<stop  offset="0.8149" style="stop-color:#222221"/>
			<stop  offset="1" style="stop-color:#1D1D1B"/>
		</linearGradient>
		<path style="fill:url(#SVGID_00000085212183345679255890000000999955039288797095_);" d="M64.2,45.1c0.1,0.4,0.3,0.7,0.4,1.2
			c2.4,8.6-7,12.6-14.2,13.3c-0.5,0-0.8,0.1-1.3,0.1c-0.5,0-0.9,0.1-1.4,0.1l-2.3-8.1c0.4,0,0.8,0,1.3-0.1c3.5-0.5,5.7-2,4.9-5
			c-0.1-0.4-0.3-0.8-0.4-1.2L64.2,45.1z"/>
		
			<linearGradient id="SVGID_00000111913725359330047800000001780076059179540900_" gradientUnits="userSpaceOnUse" x1="134.1977" y1="130.5765" x2="143.9059" y2="128.3353" gradientTransform="matrix(0.9127 0.4085 0.4085 -0.9127 -154.8193 106.2283)">
			<stop  offset="0.2912" style="stop-color:#00668E"/>
			<stop  offset="0.4962" style="stop-color:#0085B3"/>
			<stop  offset="0.7013" style="stop-color:#009DD2"/>
			<stop  offset="0.8764" style="stop-color:#00ADE4"/>
			<stop  offset="1" style="stop-color:#00B2EB"/>
		</linearGradient>
		<path style="fill:url(#SVGID_00000111913725359330047800000001780076059179540900_);" d="M20.9,48c0.3,0,0.6,0.1,0.8,0.2
			c0,0,0.1,0,0.1,0c0.3,0.1,0.6,0.2,1,0.3c0.1,0,0.2,0,0.3,0.1c0.3,0.1,0.5,0.2,0.8,0.3c0.1,0,0.1,0,0.2,0.1c0.3,0.1,0.6,0.2,1,0.4
			c0,0,0.1,0,0.2,0.1c0.3,0.1,0.5,0.2,0.8,0.3c0.1,0,0.2,0.1,0.3,0.1c0.3,0.1,0.6,0.3,0.9,0.4l6.7-8.8c-0.3-0.1-0.6-0.3-0.9-0.4
			c-0.1,0-0.2-0.1-0.3-0.1c-0.3-0.1-0.5-0.2-0.8-0.3c0,0-0.1,0-0.2-0.1c-0.3-0.1-0.6-0.2-1-0.4c-0.1,0-0.1,0-0.2-0.1
			c-0.3-0.1-0.5-0.2-0.8-0.3c-0.1,0-0.2,0-0.3-0.1c-0.3-0.1-0.6-0.2-1-0.3c0,0-0.1,0-0.1,0c-0.2,0-0.4-0.1-0.6-0.1c0,0-0.1,0-0.1,0
			c-0.3,0-0.6-0.1-0.8-0.1c-0.1,0-0.3,0-0.4,0c-0.4,0-0.8-0.1-1.3-0.1c-0.1,0-0.2,0-0.3,0c-0.1,0-0.2,0-0.3,0c0,0,0,0-0.1,0
			c0,0-0.1,0-0.2,0c0,0-0.1,0-0.1,0c0,0-0.1,0-0.2,0c0,0,0,0-0.1,0c0,0-0.1,0-0.2,0c0,0,0,0-0.1,0c-0.1,0-0.1,0-0.2,0.1h0
			c-0.1,0-0.1,0.1-0.2,0.1c0,0,0,0,0,0c0,0-0.1,0-0.1,0.1l0,0c-0.1,0-0.1,0.1-0.2,0.2l-6.7,8.8c0-0.1,0.1-0.1,0.2-0.2
			c0,0,0.1,0,0.1-0.1c0,0,0,0,0,0c0.1,0,0.1-0.1,0.2-0.1h0c0,0,0.1,0,0.2-0.1c0,0,0,0,0.1,0c0,0,0.1,0,0.2,0s0,0,0.1,0
			c0,0,0.1,0,0.2,0c0,0,0,0,0.1,0c0,0,0.1,0,0.2,0s0,0,0.1,0c0.1,0,0.2,0,0.3,0c0.1,0,0.2,0,0.3,0c0.4,0,0.8,0,1.3,0.1
			c0.1,0,0.3,0,0.4,0C20.4,47.9,20.7,47.9,20.9,48z"/>
		
			<linearGradient id="SVGID_00000048460862340400452280000012076258495141812915_" gradientUnits="userSpaceOnUse" x1="136.7646" y1="127.7893" x2="131.5452" y2="138.9822" gradientTransform="matrix(0.9127 0.4085 0.4085 -0.9127 -154.8193 106.2283)">
			<stop  offset="0" style="stop-color:#A0D9F7"/>
			<stop  offset="1" style="stop-color:#009EE2"/>
		</linearGradient>
		<path style="fill:url(#SVGID_00000048460862340400452280000012076258495141812915_);" d="M20.3,30.3c0.7,0,1.3,0,2,0
			c4.4,0.4,8.8,1.5,13.1,3.5c-0.6,2.9-0.9,4.4-1.5,7.5c-2.7-1.3-5.7-2.4-8.8-2.5c-0.1,0-0.2,0-0.3,0c-1.2,0-2.5,0.4-2.2,1.6
			c0.3,1.2,2.1,1.4,3.2,1.6c1.3,0.2,2,0.4,3.3,0.6c1.6,0.3,3.1,0.7,4.5,1.2c-0.1,0.9-0.2,1.5-0.4,2.1l-21.4,0.5
			c-1.2-1.3-2.1-2.7-2.7-4.5C7,34.2,13.3,30.4,20.3,30.3z"/>
		<polygon class="st24" points="33.3,46 26.7,54.8 5.2,55.2 11.9,46.4 		"/>
		<path class="st35" d="M28,53.7l-6.7,8.8c0.2-0.3,0.3-0.6,0.2-1.1c-0.4-1.4-2.2-1.5-3.6-1.6c-1.2-0.1-1.7-0.2-2.9-0.3
			c-3.1-0.4-6.2-1.3-8.5-3.1l6.7-8.8c2.4,1.8,5.4,2.8,8.5,3.1c1.2,0.1,1.7,0.2,2.9,0.3c1.3,0.2,3.1,0.2,3.6,1.6
			C28.3,53,28.2,53.4,28,53.7z"/>
		
			<linearGradient id="SVGID_00000145759845027429010920000008605426280777750187_" gradientUnits="userSpaceOnUse" x1="127.0589" y1="119.7839" x2="143.8125" y2="115.916" gradientTransform="matrix(0.9127 0.4085 0.4085 -0.9127 -154.8193 106.2283)">
			<stop  offset="0.1758" style="stop-color:#D2C232"/>
			<stop  offset="0.5604" style="stop-color:#837A00"/>
			<stop  offset="1" style="stop-color:#736B00"/>
		</linearGradient>
		<path style="fill:url(#SVGID_00000145759845027429010920000008605426280777750187_);" d="M28.1,52.6c-0.1-0.4-0.3-0.6-0.6-0.8
			c-0.1-0.1-0.3-0.2-0.4-0.3c-0.3-0.1-0.6-0.2-1-0.3c-0.6-0.1-1.1-0.1-1.6-0.2c-1.2-0.1-1.7-0.2-2.9-0.3c-0.6-0.1-1.3-0.2-1.9-0.3
			c-1.6-0.3-3.1-0.8-4.4-1.5c-0.7-0.4-1.4-0.8-2.1-1.3c-0.2-0.1-0.4-0.3-0.6-0.5c-0.3-0.2-0.5-0.5-0.7-0.7l-6.7,8.8
			c0.2,0.2,0.5,0.5,0.7,0.7c0,0,0,0,0.1,0.1c0.2,0.1,0.3,0.3,0.5,0.4c0.6,0.5,1.3,0.9,2.1,1.3c1.4,0.7,2.9,1.2,4.4,1.5
			c0.6,0.1,1.3,0.2,1.9,0.3c1.2,0.1,1.7,0.2,2.9,0.3c0.5,0,1.1,0.1,1.6,0.2c0.4,0.1,0.7,0.2,1,0.3c0.1,0.1,0.3,0.2,0.4,0.3
			c0.2,0.2,0.5,0.5,0.6,0.8c0.1,0.4,0,0.7-0.2,1.1l6.7-8.8C28.2,53.4,28.3,53,28.1,52.6z"/>
		
			<linearGradient id="SVGID_00000148643803679758032250000003689097493418588327_" gradientUnits="userSpaceOnUse" x1="137.2358" y1="127.6628" x2="144.1251" y2="111.4326" gradientTransform="matrix(0.9127 0.4085 0.4085 -0.9127 -154.8193 106.2283)">
			<stop  offset="0" style="stop-color:#FFF49A"/>
			<stop  offset="9.090412e-02" style="stop-color:#FFF384"/>
			<stop  offset="0.3053" style="stop-color:#FFF055"/>
			<stop  offset="0.51" style="stop-color:#FFEE30"/>
			<stop  offset="0.6996" style="stop-color:#FFED16"/>
			<stop  offset="0.8686" style="stop-color:#FFEC06"/>
			<stop  offset="1" style="stop-color:#FFEC00"/>
		</linearGradient>
		<path style="fill:url(#SVGID_00000148643803679758032250000003689097493418588327_);" d="M33.3,46c0,0.4-0.1,0.7-0.2,1.2
			c-0.8,5.1-1.6,10.2-2.3,15.3c0,0,0,0.1-0.1,0.5c-0.6,0.1-1.4,0.2-2,0.3c-1,0.1-1.9,0.2-3,0.2c-3.9,0.1-8.1-0.5-12.1-1.8
			c0.5-4.1,0.8-6.1,1.3-10c0.3,0.2,0.5,0.3,0.8,0.5c2.8,1.5,5.9,2.6,8.9,2.6c0.1,0,0.3,0,0.4,0c1.3-0.1,3.3-0.7,2.9-2.1
			c-0.4-1.4-2.2-1.5-3.6-1.6c-1.2-0.1-1.7-0.2-2.9-0.3c-3.1-0.4-6.2-1.3-8.5-3.1c-0.5-0.4-0.9-0.7-1.3-1.2L33.3,46z"/>
		
			<linearGradient id="SVGID_00000085944432883605238100000011408072720817241787_" gradientUnits="userSpaceOnUse" x1="130.4674" y1="109.4939" x2="149.58" y2="105.4314" gradientTransform="matrix(0.9127 0.4085 0.4085 -0.9127 -154.8193 106.2283)">
			<stop  offset="0" style="stop-color:#C5B630"/>
			<stop  offset="0.2637" style="stop-color:#837A00"/>
			<stop  offset="0.5385" style="stop-color:#E9D744"/>
			<stop  offset="1" style="stop-color:#A09400"/>
		</linearGradient>
		<path style="fill:url(#SVGID_00000085944432883605238100000011408072720817241787_);" d="M28.8,63.3c-1,0.1-1.9,0.2-3,0.2
			c-0.6,0-1.2,0-1.8,0c-0.2,0-0.4,0-0.6,0c-0.5,0-0.9,0-1.4-0.1c-0.2,0-0.3,0-0.5,0c-0.6,0-1.2-0.1-1.9-0.2c0,0-0.1,0-0.2,0
			c-0.6-0.1-1.1-0.2-1.7-0.3c-0.2,0-0.4-0.1-0.6-0.1c-0.4-0.1-0.9-0.2-1.3-0.3c-0.2,0-0.4-0.1-0.6-0.1c-0.6-0.1-1.2-0.3-1.8-0.5
			c0.5-4.1,0.8-6.1,1.3-10l-6.7,8.8c-0.6,3.9-0.8,5.9-1.3,10c0.6,0.2,1.2,0.4,1.8,0.5c0.2,0,0.4,0.1,0.6,0.1
			c0.4,0.1,0.9,0.2,1.3,0.3c0.1,0,0.2,0,0.3,0.1c0.1,0,0.1,0,0.2,0c0.6,0.1,1.1,0.2,1.7,0.3c0,0,0.1,0,0.2,0
			c0.6,0.1,1.2,0.1,1.9,0.2c0.2,0,0.3,0,0.5,0c0.5,0,0.9,0,1.4,0.1c0.2,0,0.4,0,0.6,0c0.6,0,1.2,0,1.8,0c1,0,2-0.1,3-0.2
			c0.6,0,1.3-0.2,2-0.3l6.7-8.8C30.1,63,29.3,63.2,28.8,63.3z"/>
	</g>
	
		<linearGradient id="SVGID_00000040556519088292630100000011185751591901651379_" gradientUnits="userSpaceOnUse" x1="138.2708" y1="118.8944" x2="195.9875" y2="118.8944" gradientTransform="matrix(0.9127 0.4085 0.4085 -0.9127 -154.8193 106.2283)">
		<stop  offset="0.1374" style="stop-color:#171717"/>
		<stop  offset="0.4066" style="stop-color:#737373"/>
		<stop  offset="0.4083" style="stop-color:#737373"/>
		<stop  offset="0.4907" style="stop-color:#838383"/>
		<stop  offset="0.5549" style="stop-color:#898988"/>
		<stop  offset="1" style="stop-color:#1D1D1B"/>
	</linearGradient>
	<path style="fill:url(#SVGID_00000040556519088292630100000011185751591901651379_);" d="M15.7,66.8l60.1-8.4
		c1.7-0.2,3.1,0.4,3.4,2l0.2,1c0.3,1.7-0.9,2.7-2.5,2.9l-60,9.5c-1.6,0.2-3.2-0.9-3.5-2.5l-0.2-1C13,68.6,14.1,67.1,15.7,66.8z"/>
	
		<linearGradient id="SVGID_00000054261416240612857630000008670214637441427124_" gradientUnits="userSpaceOnUse" x1="122.4923" y1="112.1441" x2="168.9307" y2="97.9465" gradientTransform="matrix(0.9303 0.3668 0.3668 -0.9303 -130.6424 113.5172)">
		<stop  offset="0" style="stop-color:#999999"/>
		<stop  offset="9.890110e-02" style="stop-color:#474747"/>
		<stop  offset="0.2363" style="stop-color:#A8A8A8"/>
		<stop  offset="0.3059" style="stop-color:#AAAAAA"/>
		<stop  offset="0.7363" style="stop-color:#B0B0B0"/>
		<stop  offset="0.9176" style="stop-color:#696969"/>
	</linearGradient>
	<path style="fill:url(#SVGID_00000054261416240612857630000008670214637441427124_);" d="M78.7,63.6L78.7,63.6
		c-0.1,0.1-0.1,0.1-0.2,0.1l0,0c0,0-0.1,0-0.1,0.1c0,0,0,0-0.1,0c0,0-0.1,0-0.2,0.1h0c-0.1,0-0.1,0.1-0.2,0.1c0,0,0,0,0,0
		c0,0-0.1,0-0.2,0s0,0-0.1,0c0,0-0.1,0-0.2,0c0,0,0,0-0.1,0c-0.1,0-0.2,0-0.3,0l-60,9.5c-1.6,0.2-3.2-0.9-3.5-2.5l-0.2-1
		c-0.2-1,0.1-1.9,0.7-2.5c-1.3,1.4-2.5,2.8-3.8,4.2c-0.6,0.6-0.9,1.6-0.7,2.5l0.2,1c0.3,1.7,1.9,2.8,3.5,2.5l61.7-10.9
		c0.1,0,0.2,0,0.3,0c0,0,0,0,0.1,0c0,0,0.1,0,0.2,0s0,0,0.1,0c0,0,0.1,0,0.2,0c0,0,0,0,0.1,0c0.1,0,0.2,0,0.2-0.1c0,0,0,0,0,0
		c0,0,0.1,0,0.2-0.1c0,0,0,0,0.1,0c0,0,0.1,0,0.1-0.1l0,0c0,0,0,0,0,0c0,0,0,0,0.1-0.1l0,0c0,0,0.1-0.1,0.2-0.2
		c1.3-1.4,0.8-1.3,2-2.7C78.9,63.5,78.8,63.5,78.7,63.6z"/>
	<g>
		<g>
			<path class="st41" d="M16.5,70c-0.1,0-0.3,0-0.4,0c-0.1,0-0.2,0.1-0.2,0.2c0,0.1,0.2,0.1,0.3,0.1c0.3,0,0.6,0.1,0.6,0.6
				c0,0.6-0.5,0.9-0.9,0.9c-0.3,0-0.6,0-0.8-0.1c0.1-0.2,0.1-0.3,0.2-0.6c0.1,0.1,0.4,0.1,0.6,0.1c0.1,0,0.2-0.1,0.2-0.2
				c0-0.2-0.2-0.1-0.4-0.2c-0.2,0-0.5-0.1-0.5-0.5c0-0.5,0.4-0.8,0.9-0.9c0.2,0,0.5,0,0.6,0C16.7,69.7,16.6,69.8,16.5,70z"/>
			<path class="st41" d="M19.2,70.2c-0.6,0.1-0.9,0.1-1.5,0.2c0,0.3,0.1,0.5,0.4,0.4c0.1,0,0.3-0.1,0.3-0.2c0.3,0,0.4,0,0.7-0.1
				c-0.1,0.5-0.6,0.8-1,0.9c-0.6,0.1-1.2-0.2-1.2-0.9s0.5-1.2,1.1-1.3C18.8,69.1,19.2,69.4,19.2,70.2C19.2,70.1,19.2,70.2,19.2,70.2
				z M18.6,69.9c0-0.2-0.2-0.3-0.4-0.3c-0.2,0-0.4,0.2-0.4,0.4C18.1,69.9,18.2,69.9,18.6,69.9z"/>
			<path class="st41" d="M20.2,69.2L20.2,69.2c0.1-0.3,0.4-0.4,0.6-0.5c0,0,0.1,0,0.1,0c0,0.3,0,0.4,0,0.7c-0.1,0-0.2,0-0.3,0
				c-0.4,0-0.5,0.4-0.5,0.7s0,0.5,0,0.8c-0.3,0-0.4,0-0.7,0.1c0-0.8,0-1.3,0-2.1c0.3,0,0.4,0,0.7-0.1C20.2,69,20.2,69.1,20.2,69.2z"
				/>
			<path class="st41" d="M22.4,69.6c0.2-0.5,0.3-0.7,0.5-1.2c0.3,0,0.5-0.1,0.8-0.1c-0.4,0.9-0.6,1.3-1,2.2c-0.2,0-0.3,0-0.5,0.1
				c-0.4-0.8-0.6-1.2-1-1.9c0.3,0,0.5-0.1,0.8-0.1C22.1,69,22.2,69.2,22.4,69.6z"/>
			<path class="st41" d="M24.5,70.3c-0.3,0-0.4,0-0.7,0.1c0-0.8,0-1.3,0-2.1c0.3,0,0.4,0,0.7-0.1C24.5,69.1,24.5,69.4,24.5,70.3z
				 M24.6,67.4c0,0.2-0.2,0.5-0.4,0.5c-0.2,0-0.4-0.1-0.4-0.4S24,67,24.2,67C24.4,67,24.6,67.2,24.6,67.4z"/>
			<path class="st41" d="M26.4,68.6c-0.1,0-0.2-0.1-0.4-0.1c-0.3,0-0.5,0.3-0.5,0.6s0.2,0.5,0.5,0.4c0.1,0,0.3-0.1,0.4-0.2
				c0,0.2,0,0.4,0,0.6c-0.1,0.1-0.3,0.2-0.5,0.2c-0.6,0.1-1.1-0.3-1.1-0.9s0.5-1.2,1.1-1.3c0.1,0,0.3,0,0.5,0
				C26.4,68.2,26.4,68.3,26.4,68.6z"/>
			<path class="st41" d="M27.6,69.8c-0.3,0-0.4,0-0.7,0.1c0-0.8,0-1.3,0-2.1c0.3,0,0.4,0,0.7-0.1C27.6,68.6,27.6,69,27.6,69.8z
				 M27.6,66.9c0,0.2-0.2,0.5-0.4,0.5c-0.2,0-0.4-0.1-0.4-0.4c0-0.2,0.2-0.5,0.4-0.5C27.5,66.6,27.6,66.7,27.6,66.9z"/>
			<path class="st41" d="M30.3,68.4c0,0.7-0.6,1.2-1.2,1.3c-0.6,0.1-1.2-0.2-1.2-0.9c0-0.7,0.6-1.2,1.2-1.3
				C29.7,67.4,30.3,67.7,30.3,68.4z M28.6,68.6c0,0.3,0.2,0.4,0.5,0.4s0.5-0.3,0.5-0.5s-0.2-0.4-0.5-0.4S28.6,68.4,28.6,68.6z"/>
			<path class="st41" d="M31.9,67.6c-0.1,0-0.3,0-0.4,0s-0.2,0-0.2,0.2s0.2,0.1,0.3,0.1c0.3,0,0.6,0.1,0.6,0.5
				c0,0.5-0.5,0.8-0.9,0.9c-0.3,0-0.6,0-0.8-0.1c0.1-0.2,0.1-0.3,0.3-0.6c0.1,0.1,0.4,0.1,0.6,0.1c0.1,0,0.2-0.1,0.2-0.2
				c0-0.1-0.2-0.1-0.4-0.1c-0.2,0-0.4-0.1-0.4-0.5c0-0.5,0.5-0.8,0.9-0.8c0.2,0,0.5,0,0.6,0C32,67.3,32,67.4,31.9,67.6z"/>
			<path class="st41" d="M35.4,68.3L35.4,68.3c-0.1,0.2-0.4,0.4-0.6,0.4c-0.6,0.1-1-0.3-1-0.9c0-0.6,0.4-1.1,1-1.2
				c0.2,0,0.5,0,0.6,0.2c0-0.6,0-0.9,0-1.5c0.3,0,0.4,0,0.7-0.1c0,1.4,0,1.9,0,3.3c-0.3,0-0.4,0-0.7,0.1
				C35.4,68.5,35.4,68.4,35.4,68.3z M34.5,67.7c0,0.2,0.2,0.4,0.5,0.4s0.5-0.3,0.5-0.5s-0.2-0.4-0.5-0.4
				C34.7,67.2,34.5,67.4,34.5,67.7z"/>
			<path class="st41" d="M37.2,68.3c-0.3,0-0.4,0-0.7,0.1c0-0.8,0-1.2,0-2c0.3,0,0.4,0,0.7-0.1C37.2,67.1,37.2,67.4,37.2,68.3z
				 M37.3,65.5c0,0.2-0.2,0.4-0.4,0.5s-0.4-0.1-0.4-0.4s0.2-0.5,0.4-0.5C37.1,65.1,37.3,65.3,37.3,65.5z"/>
			<path class="st41" d="M39.8,67.7c0,0.8-0.4,1.3-1.2,1.4c-0.5,0.1-1.1-0.1-1.1-0.6c0.3,0,0.5-0.1,0.8-0.1c0,0,0,0.1,0.1,0.1
				c0,0,0.1,0,0.2,0c0.4,0,0.5-0.3,0.5-0.6c0,0,0,0,0-0.1c-0.2,0.2-0.4,0.3-0.6,0.4c-0.6,0.1-1-0.3-1-0.9c0-0.6,0.4-1.1,1-1.2
				c0.2,0,0.5,0,0.6,0.2l0,0c0-0.1,0-0.1,0-0.2c0.3,0,0.4,0,0.7-0.1C39.9,66.6,39.9,66.9,39.8,67.7z M38.3,67.1
				c0,0.2,0.1,0.4,0.5,0.4c0.3,0,0.5-0.3,0.5-0.5s-0.1-0.4-0.5-0.4C38.4,66.6,38.3,66.8,38.3,67.1z"/>
			<path class="st41" d="M41,67.7c-0.3,0-0.4,0-0.7,0.1c0-0.8,0-1.2,0-1.9c0.3,0,0.4,0,0.7-0.1C41,66.5,41,66.9,41,67.7z M41,64.9
				c0,0.2-0.2,0.4-0.4,0.5c-0.2,0-0.4-0.1-0.4-0.3c0-0.2,0.2-0.4,0.4-0.5C40.9,64.6,41,64.7,41,64.9z"/>
			<path class="st41" d="M42.2,67.5c-0.3,0-0.4,0-0.7,0.1c0-0.6,0-0.8,0-1.4c-0.1,0-0.1,0-0.2,0c0-0.2,0-0.3,0-0.6
				c0.1,0,0.1,0,0.2,0c0-0.2,0-0.4,0-0.6c0.3,0,0.4,0,0.7-0.1c0,0.2,0,0.4,0,0.6c0.1,0,0.2,0,0.4,0c0,0.2,0,0.3,0,0.6
				c-0.1,0-0.2,0-0.4,0C42.2,66.7,42.2,66.9,42.2,67.5z"/>
			<path class="st41" d="M45,67c-0.3,0-0.4,0-0.7,0.1c0-0.1,0-0.1,0-0.2l0,0c-0.1,0.2-0.4,0.3-0.6,0.4c-0.6,0.1-1-0.3-1-0.9
				s0.4-1.1,1-1.2c0.2,0,0.5,0,0.6,0.1c0-0.1,0-0.1,0-0.2c0.3,0,0.4,0,0.7-0.1C45,65.9,45,66.2,45,67z M43.4,66.3
				c0,0.2,0.1,0.4,0.5,0.4c0.3,0,0.5-0.3,0.5-0.5s-0.1-0.4-0.5-0.4S43.4,66.1,43.4,66.3z"/>
			<path class="st41" d="M46.2,66.8c-0.3,0-0.4,0-0.7,0.1c0-1.3,0-1.8,0-3.1c0.3,0,0.4,0,0.7-0.1C46.2,65,46.2,65.6,46.2,66.8z"/>
			<path class="st41" d="M48.7,65.6c-0.6,0.1-0.9,0.1-1.5,0.2c0,0.3,0.1,0.4,0.4,0.4c0.1,0,0.3-0.1,0.3-0.2c0.3,0,0.4,0,0.7-0.1
				c-0.1,0.5-0.6,0.7-1,0.8c-0.6,0.1-1.2-0.2-1.1-0.8c0-0.6,0.5-1.1,1.1-1.2C48.3,64.6,48.7,64.9,48.7,65.6
				C48.7,65.5,48.7,65.6,48.7,65.6z M48,65.3c0-0.2-0.2-0.3-0.4-0.2c-0.2,0-0.4,0.1-0.4,0.4C47.5,65.4,47.7,65.4,48,65.3z"/>
			<path class="st41" d="M50.3,64.8c-0.1,0-0.3,0-0.4,0c-0.1,0-0.2,0-0.2,0.1c0,0.1,0.2,0.1,0.3,0.1c0.3,0,0.6,0.1,0.6,0.5
				c0,0.5-0.5,0.8-0.9,0.8c-0.3,0-0.6,0-0.8-0.1c0.1-0.2,0.1-0.3,0.3-0.5c0.1,0.1,0.4,0.1,0.6,0.1c0.1,0,0.2-0.1,0.2-0.2
				c0-0.1-0.2-0.1-0.4-0.1c-0.2,0-0.4-0.1-0.4-0.4c0-0.5,0.5-0.7,0.9-0.8c0.2,0,0.5,0,0.6,0C50.4,64.5,50.4,64.6,50.3,64.8z"/>
			<path class="st41" d="M54.3,64.7c-0.6,0.1-0.9,0.1-1.5,0.2c0,0.3,0.1,0.4,0.4,0.3c0.1,0,0.3-0.1,0.3-0.2c0.3,0,0.4,0,0.7-0.1
				c-0.1,0.5-0.6,0.7-1,0.8c-0.6,0.1-1.2-0.2-1.1-0.8c0-0.6,0.5-1.1,1.1-1.2c0.7-0.1,1.1,0.2,1.1,0.8C54.3,64.7,54.3,64.7,54.3,64.7
				z M53.7,64.4c0-0.2-0.2-0.3-0.4-0.2c-0.2,0-0.4,0.1-0.4,0.4C53.2,64.5,53.3,64.5,53.7,64.4z"/>
			<path class="st41" d="M55.3,63.8L55.3,63.8c0.2-0.2,0.4-0.4,0.6-0.4c0.6-0.1,0.7,0.2,0.7,0.6c0,0.5,0,0.6,0,1.1
				c-0.3,0-0.4,0-0.7,0.1c0-0.4,0-0.6,0-0.9c0-0.2,0-0.5-0.3-0.4c-0.3,0-0.4,0.2-0.4,0.5c0,0.4,0,0.6,0,1c-0.3,0-0.4,0-0.7,0.1
				c0-0.7,0-1.1,0-1.9c0.3,0,0.4,0,0.7-0.1C55.3,63.6,55.3,63.7,55.3,63.8z"/>
			<path class="st41" d="M59.2,64.8c-0.3,0-0.4,0-0.7,0.1c0-0.7,0-1.1,0-1.8c0.3,0,0.4,0,0.7-0.1C59.2,63.7,59.2,64,59.2,64.8z
				 M59.3,62.2c0,0.2-0.2,0.4-0.4,0.5c-0.2,0-0.4-0.1-0.4-0.3s0.2-0.4,0.4-0.5S59.3,62,59.3,62.2z"/>
			<path class="st41" d="M60.4,63L60.4,63c0.2-0.2,0.4-0.3,0.6-0.4c0.3,0,0.6,0.2,0.6,0.2c0,0,0.4-0.4,0.7-0.5
				c0.5-0.1,0.6,0.2,0.6,0.6c0,0.5,0,0.6,0,1.1c-0.3,0-0.4,0-0.7,0.1c0-0.4,0-0.5,0-0.8c0-0.2,0-0.5-0.3-0.4c-0.3,0-0.3,0.3-0.4,0.5
				c0,0.3,0,0.5,0,0.8c-0.3,0-0.4,0-0.7,0.1c0-0.4,0-0.5,0-0.9c0-0.2,0-0.5-0.3-0.5c-0.3,0-0.3,0.3-0.3,0.6c0,0.3,0,0.5,0,0.9
				c-0.3,0-0.4,0-0.7,0.1c0-0.7,0-1.1,0-1.8c0.3,0,0.4,0,0.7-0.1C60.4,62.9,60.4,62.9,60.4,63z"/>
			<path class="st41" d="M64.2,62.4L64.2,62.4c0.1-0.2,0.4-0.3,0.6-0.4c0.6-0.1,1,0.3,1,0.8s-0.4,1-1,1.1c-0.2,0-0.5,0-0.6-0.1
				c0,0.4,0,0.6,0,1.2c-0.3,0-0.4,0-0.7,0.1c0-1.3,0-1.7,0-2.7c0.3,0,0.4,0,0.7-0.1C64.2,62.3,64.2,62.3,64.2,62.4z M64.1,63.1
				c0,0.2,0.1,0.4,0.4,0.3c0.3,0,0.5-0.2,0.5-0.5s-0.1-0.4-0.4-0.3C64.3,62.7,64.1,62.9,64.1,63.1z"/>
			<path class="st41" d="M66.8,62.1L66.8,62.1c0.1-0.2,0.4-0.4,0.6-0.4c0,0,0.1,0,0.1,0c0,0.2,0,0.4,0,0.6c-0.1,0-0.2,0-0.3,0
				c-0.4,0-0.5,0.3-0.5,0.6c0,0.3,0,0.4,0,0.7c-0.3,0-0.4,0-0.7,0.1c0-0.7,0-1,0-1.8c0.3,0,0.4,0,0.7-0.1
				C66.8,61.9,66.8,62,66.8,62.1z"/>
			<path class="st41" d="M69.9,62.3c-0.6,0.1-0.9,0.1-1.5,0.2c0,0.2,0.1,0.4,0.4,0.3c0.1,0,0.3-0.1,0.3-0.2c0.3,0,0.4,0,0.7-0.1
				c-0.1,0.4-0.6,0.7-1,0.7c-0.6,0.1-1.2-0.1-1.1-0.7c0-0.6,0.5-1,1.1-1.1C69.5,61.3,69.9,61.7,69.9,62.3
				C69.9,62.3,69.9,62.3,69.9,62.3z M69.2,62c0-0.1-0.2-0.2-0.4-0.2c-0.2,0-0.4,0.1-0.4,0.3C68.8,62.1,68.9,62.1,69.2,62z"/>
			<path class="st41" d="M71.5,61.5c-0.1,0-0.3,0-0.4,0s-0.2,0-0.2,0.1c0,0.1,0.2,0.1,0.3,0.1c0.3,0,0.6,0.1,0.6,0.4
				c0,0.5-0.5,0.7-1,0.8c-0.3,0-0.6,0-0.8-0.1c0.1-0.2,0.1-0.3,0.3-0.5c0.1,0,0.4,0.1,0.6,0.1c0.1,0,0.2-0.1,0.2-0.2
				c0-0.1-0.2-0.1-0.4-0.1c-0.2,0-0.4-0.1-0.4-0.4c0-0.4,0.5-0.7,0.9-0.7c0.2,0,0.5,0,0.6,0C71.7,61.3,71.6,61.4,71.5,61.5z"/>
			<path class="st41" d="M72.8,62.6c-0.3,0-0.4,0-0.7,0.1c0-0.7,0-1,0-1.7c0.3,0,0.4,0,0.7-0.1C72.9,61.6,72.9,61.9,72.8,62.6z
				 M73,60.2c0,0.2-0.2,0.4-0.4,0.4c-0.2,0-0.4-0.1-0.4-0.3c0-0.2,0.2-0.4,0.4-0.5C72.8,59.8,73,59.9,73,60.2z"/>
			<path class="st41" d="M75.6,61.3c0,0.6-0.6,1-1.2,1.1c-0.6,0.1-1.2-0.1-1.2-0.7c0-0.6,0.6-1,1.2-1.1
				C75.1,60.5,75.6,60.7,75.6,61.3z M74,61.6c0,0.2,0.1,0.4,0.4,0.3c0.3,0,0.5-0.2,0.5-0.5c0-0.2-0.1-0.4-0.4-0.3
				C74.1,61.1,74,61.4,74,61.6z M74.3,60.4c-0.1,0-0.2-0.1-0.3-0.2c0.2-0.3,0.3-0.4,0.6-0.7c0.2,0.1,0.3,0.1,0.4,0.2
				C74.6,60,74.5,60.2,74.3,60.4z"/>
			<path class="st41" d="M76.6,60.5L76.6,60.5c0.2-0.2,0.4-0.3,0.6-0.4c0.6-0.1,0.7,0.2,0.7,0.6c0,0.4,0,0.6,0,1.1
				c-0.3,0-0.4,0-0.7,0.1c0-0.4,0-0.5,0-0.8c0-0.1,0-0.5-0.3-0.4c-0.3,0-0.4,0.2-0.4,0.5c0,0.3,0,0.5,0,0.9c-0.3,0-0.4,0-0.7,0.1
				c0-0.7,0-1,0-1.7c0.3,0,0.4,0,0.7-0.1C76.6,60.4,76.6,60.5,76.6,60.5z"/>
		</g>
	</g>
</g>
</svg>
